<svg width="105" height="53" viewBox="0 0 105 53" fill="none" xmlns="http://www.w3.org/2000/svg">
  <!-- Pindahkan <defs> ke atas -->
  <defs>
    <linearGradient id="paint0_linear_137_170" x1="32.0149" y1="0.373108" x2="32.0149" y2="33.2089" gradientUnits="userSpaceOnUse">
      <stop stop-color="#FEBD01"/>
      <stop offset="1" stop-color="#F44336" stop-opacity="0.65"/>
    </linearGradient>
    <linearGradient id="paint1_linear_137_170" x1="72.7314" y1="0.373108" x2="72.7314" y2="33.2089" gradientUnits="userSpaceOnUse">
      <stop stop-color="#FEBD01"/>
      <stop offset="1" stop-color="#F44336" stop-opacity="0.65"/>
    </linearGradient>
    <clipPath id="clip0_137_170">
      <rect width="65.4585" height="32.8358" fill="white" transform="translate(19.7014 0.373108)"/>
    </clipPath>
  </defs>
  
  <!-- Konten yang menggunakan referensi dari <defs> -->
  <g clip-path="url(#clip0_137_170)">
    <path fill-rule="evenodd" clip-rule="evenodd" d="M44.3283 2.56953C39.421 5.40825 36.1193 10.7141 36.1193 16.791C36.1193 22.868 39.421 28.1738 44.3283 31.0126C41.9134 32.4094 39.1097 33.2089 36.1193 33.2089C27.052 33.2089 19.7014 25.8584 19.7014 16.791C19.7014 7.72367 27.052 0.373108 36.1193 0.373108C39.1097 0.373108 41.9134 1.17261 44.3283 2.56953Z" fill="url(#paint0_linear_137_170)"/>
    <path fill-rule="evenodd" clip-rule="evenodd" d="M60.418 2.56953C65.3252 5.40825 68.6269 10.7141 68.6269 16.791C68.6269 22.868 65.3252 28.1738 60.418 31.0126C62.8329 32.4094 65.6365 33.2089 68.6269 33.2089C77.6943 33.2089 85.0448 25.8584 85.0448 16.791C85.0448 7.72367 77.6943 0.373108 68.6269 0.373108C65.6365 0.373108 62.8329 1.17261 60.418 2.56953Z" fill="url(#paint1_linear_137_170)"/>
    <path d="M52.373 28.2836C58.6295 28.2836 63.7014 23.2117 63.7014 16.9552C63.7014 10.6987 58.6295 5.62683 52.373 5.62683C46.1166 5.62683 41.0447 10.6987 41.0447 16.9552C41.0447 23.2117 46.1166 28.2836 52.373 28.2836Z" fill="#FE0154"/>
  </g>
  <path d="M0 48.8839V36.209H4.84724C5.7307 36.209 6.5095 36.3677 7.18368 36.6853C7.86952 36.9916 8.40421 37.4453 8.78781 38.0464C9.1714 38.6362 9.3632 39.3564 9.3632 40.2071C9.3632 41.0464 9.16562 41.7666 8.77037 42.3678C8.38678 42.9576 7.85791 43.4113 7.18368 43.7289C6.5095 44.0464 5.7307 44.2052 4.84724 44.2052H2.37132V48.8839H0ZM2.37132 42.1636H4.88211C5.31223 42.1636 5.68417 42.0843 5.99802 41.9255C6.31187 41.7553 6.55598 41.5228 6.73034 41.2279C6.9047 40.933 6.99188 40.5927 6.99188 40.2071C6.99188 39.8101 6.9047 39.4699 6.73034 39.1863C6.55598 38.8914 6.31187 38.6646 5.99802 38.5058C5.68417 38.3356 5.31223 38.2506 4.88211 38.2506H2.37132V42.1636ZM15.4119 49.0881C14.482 49.0881 13.6334 48.8782 12.8662 48.4586C12.1107 48.0389 11.5062 47.4661 11.0529 46.7402C10.6112 46.0143 10.3903 45.1863 10.3903 44.2563C10.3903 43.3262 10.6112 42.4982 11.0529 41.7723C11.5062 41.0464 12.1107 40.4736 12.8662 40.054C13.6218 39.6343 14.4704 39.4245 15.4119 39.4245C16.3419 39.4245 17.1846 39.6343 17.9402 40.054C18.6957 40.4736 19.2944 41.0464 19.7361 41.7723C20.1894 42.4869 20.4161 43.3149 20.4161 44.2563C20.4161 45.1863 20.1894 46.0143 19.7361 46.7402C19.2828 47.4661 18.6783 48.0389 17.9227 48.4586C17.1672 48.8782 16.3302 49.0881 15.4119 49.0881ZM15.4119 47.0465C15.9234 47.0465 16.3709 46.9274 16.7545 46.6892C17.1497 46.451 17.4578 46.1221 17.6786 45.7024C17.9111 45.2714 18.0273 44.7894 18.0273 44.2563C18.0273 43.7119 17.9111 43.2355 17.6786 42.8272C17.4578 42.4075 17.1497 42.0786 16.7545 41.8404C16.3709 41.5909 15.9234 41.4661 15.4119 41.4661C14.8888 41.4661 14.4297 41.5909 14.0345 41.8404C13.6393 42.0786 13.3254 42.4075 13.0929 42.8272C12.8721 43.2355 12.7616 43.7119 12.7616 44.2563C12.7616 44.7894 12.8721 45.2714 13.0929 45.7024C13.3254 46.1221 13.6393 46.451 14.0345 46.6892C14.4297 46.9274 14.8888 47.0465 15.4119 47.0465ZM24.8376 48.8839L21.1062 39.6286H23.5996L26.3022 46.9104H25.3781L28.0981 39.6286H30.5915L26.8601 48.8839H24.8376ZM36.1822 49.0881C35.2058 49.0881 34.3514 48.8726 33.6191 48.4416C32.8868 48.0106 32.3172 47.4265 31.9103 46.6892C31.5035 45.9519 31.3001 45.1353 31.3001 44.2393C31.3001 43.3092 31.5035 42.4869 31.9103 41.7723C32.3288 41.0464 32.8926 40.4736 33.6016 40.054C34.3223 39.6343 35.1244 39.4245 36.0078 39.4245C36.7518 39.4245 37.4027 39.5436 37.9607 39.7818C38.5303 40.02 39.0127 40.3489 39.4079 40.7685C39.803 41.1882 40.1054 41.6703 40.3146 42.2147C40.5238 42.7478 40.6285 43.3262 40.6285 43.95C40.6285 44.1089 40.617 44.2733 40.5936 44.4434C40.5821 44.6136 40.5528 44.761 40.5064 44.8858H33.1832V43.1844H39.2161L38.135 43.9841C38.2397 43.4623 38.2106 42.9973 38.0479 42.589C37.8968 42.1807 37.641 41.8574 37.2807 41.6192C36.9319 41.381 36.5077 41.2619 36.0078 41.2619C35.5313 41.2619 35.107 41.381 34.735 41.6192C34.363 41.8461 34.0782 42.1863 33.8806 42.64C33.6946 43.0824 33.6249 43.6211 33.6714 44.2563C33.6249 44.8234 33.7005 45.3281 33.8981 45.7705C34.1073 46.2015 34.4095 46.5361 34.8047 46.7743C35.2116 47.0125 35.6765 47.1315 36.1996 47.1315C36.7227 47.1315 37.1644 47.0238 37.5248 46.8083C37.8968 46.5928 38.1874 46.3036 38.3966 45.9406L40.2449 46.8253C40.059 47.2677 39.7681 47.659 39.373 47.9992C38.9778 48.3395 38.507 48.606 37.9607 48.7989C37.426 48.9917 36.8332 49.0881 36.1822 49.0881ZM42.3598 48.8839V39.6286H44.5044V41.6873L44.3301 41.381C44.5512 40.6892 44.894 40.2071 45.3588 39.9349C45.8355 39.6627 46.4943 39.6039 47.1569 39.6039L48.4569 39.6286V41.6192H46.7606C46.1099 41.6192 45.6322 41.6986 45.2368 42.0956C44.8417 42.4812 44.6439 43.0256 44.6439 43.7289V48.8839H42.3598ZM53.4611 48.986C52.3915 48.986 51.5605 48.7025 50.9677 48.1353C50.3864 47.5569 50.0959 46.7459 50.0959 45.7024V41.6192H48.4569V39.6286H48.6313C49.0961 39.6286 49.4567 39.5096 49.7123 39.2714C49.9679 39.0332 50.0959 38.6872 50.0959 38.2335V37.519H52.38V39.6286H54.5595V41.6192H52.38V45.5833C52.38 45.8896 52.4323 46.1505 52.537 46.3659C52.6531 46.5814 52.8274 46.7459 53.06 46.8593C53.3041 46.9727 53.612 47.0295 53.9842 47.0295C54.0654 47.0295 54.1585 47.0238 54.2631 47.0125C54.3792 47.0011 54.4898 46.9898 54.5944 46.9784V48.8839C54.4316 48.9066 54.2457 48.9293 54.0365 48.952C53.8272 48.9747 53.6354 48.986 53.4611 48.986ZM57.4904 52.6269C57.2344 52.6269 56.9848 52.6042 56.7407 52.5588C56.4965 52.5248 56.2754 52.4567 56.0781 52.3547V50.5002C56.2291 50.5342 56.4094 50.5683 56.6186 50.6023C56.8393 50.6363 57.0426 50.6533 57.2289 50.6533C57.7519 50.6533 58.1296 50.5342 58.3622 50.296C58.6063 50.0692 58.8211 49.7629 59.0074 49.3773L59.6351 47.9482L59.6002 49.8197L55.4678 39.6286H57.9263L60.8207 47.1486H59.9489L62.8259 39.6286H65.3018L61.1694 49.8197C60.9253 50.4094 60.6289 50.9142 60.2802 51.3339C59.9315 51.7535 59.5245 52.0711 59.0597 52.2866C58.6063 52.5135 58.0832 52.6269 57.4904 52.6269ZM66.7478 48.8839V36.209H69.1191V46.8423H74.6813V48.8839H66.7478ZM80.522 49.0881C79.5456 49.0881 78.6912 48.8726 77.9589 48.4416C77.2266 48.0106 76.6567 47.4265 76.2501 46.6892C75.8432 45.9519 75.6399 45.1353 75.6399 44.2393C75.6399 43.3092 75.8432 42.4869 76.2501 41.7723C76.6686 41.0464 77.2321 40.4736 77.9414 40.054C78.6619 39.6343 79.4639 39.4245 80.3476 39.4245C81.0914 39.4245 81.7425 39.5436 82.3005 39.7818C82.8699 40.02 83.3522 40.3489 83.7477 40.7685C84.1428 41.1882 84.4451 41.6703 84.6544 42.2147C84.8636 42.7478 84.9682 43.3262 84.9682 43.95C84.9682 44.1089 84.9563 44.2733 84.9333 44.4434C84.9214 44.6136 84.8925 44.761 84.8462 44.8858H77.523V43.1844H83.5559L82.4748 43.9841C82.5795 43.4623 82.5501 42.9973 82.3877 42.589C82.2363 42.1807 81.9807 41.8574 81.6205 41.6192C81.2717 41.381 80.8473 41.2619 80.3476 41.2619C79.8709 41.2619 79.4465 41.381 79.0748 41.6192C78.7027 41.8461 78.4178 42.1863 78.2204 42.64C78.0342 43.0824 77.9644 43.6211 78.0112 44.2563C77.9644 44.8234 78.0401 45.3281 78.2378 45.7705C78.4471 46.2015 78.749 46.5361 79.1445 46.7743C79.5511 47.0125 80.0163 47.1315 80.5394 47.1315C81.0625 47.1315 81.504 47.0238 81.8646 46.8083C82.2363 46.5928 82.5271 46.3036 82.7364 45.9406L84.5846 46.8253C84.3984 47.2677 84.1079 47.659 83.7128 47.9992C83.3173 48.3395 82.8465 48.606 82.3005 48.7989C81.7655 48.9917 81.1727 49.0881 80.522 49.0881ZM86.6995 48.8839V39.6286H88.8442V41.4491L88.6698 41.1258C88.8906 40.5701 89.2512 40.1504 89.7509 39.8668C90.2625 39.5719 90.8553 39.4245 91.5294 39.4245C92.2268 39.4245 92.843 39.5719 93.3776 39.8668C93.924 40.1617 94.3481 40.5757 94.6504 41.1088C94.9528 41.6305 95.1038 42.2374 95.1038 42.9292V48.8839H92.8196V43.4567C92.8196 43.0483 92.7384 42.6967 92.5755 42.4018C92.4127 42.1069 92.186 41.8801 91.8955 41.7213C91.6165 41.5512 91.2852 41.4661 90.9016 41.4661C90.5295 41.4661 90.1983 41.5512 89.9078 41.7213C89.6173 41.8801 89.3906 42.1069 89.2278 42.4018C89.0649 42.6967 88.9837 43.0483 88.9837 43.4567V48.8839H86.6995ZM100.645 49.0881C99.6332 49.0881 98.7499 48.8556 97.9942 48.3905C97.2504 47.9142 96.7388 47.2733 96.4598 46.468L98.1686 45.6684C98.4127 46.1901 98.7499 46.5984 99.1799 46.8934C99.6217 47.1883 100.11 47.3357 100.645 47.3357C101.063 47.3357 101.394 47.245 101.638 47.0635C101.882 46.882 102.005 46.6438 102.005 46.3489C102.005 46.1675 101.952 46.02 101.848 45.9066C101.754 45.7818 101.621 45.6797 101.447 45.6003C101.284 45.5096 101.104 45.4359 100.906 45.3792L99.3542 44.9538C98.5522 44.727 97.9419 44.3811 97.5234 43.916C97.1165 43.451 96.9132 42.9009 96.9132 42.2657C96.9132 41.6986 97.0586 41.2052 97.3491 40.7856C97.6514 40.3545 98.064 40.02 98.587 39.7818C99.1216 39.5436 99.7319 39.4245 100.418 39.4245C101.313 39.4245 102.103 39.6343 102.789 40.054C103.475 40.4736 103.963 41.0635 104.254 41.8234L102.51 42.623C102.347 42.2034 102.074 41.8687 101.691 41.6192C101.307 41.3697 100.877 41.2449 100.4 41.2449C100.017 41.2449 99.7144 41.33 99.4937 41.5001C99.273 41.6703 99.1624 41.8914 99.1624 42.1636C99.1624 42.3338 99.2088 42.4812 99.3019 42.606C99.3951 42.7308 99.5226 42.8328 99.6855 42.9122C99.8599 42.9916 100.058 43.0653 100.278 43.1334L101.795 43.5758C102.574 43.8026 103.173 44.1429 103.591 44.5966C104.021 45.0502 104.236 45.606 104.236 46.2639C104.236 46.8196 104.085 47.313 103.783 47.744C103.481 48.1637 103.062 48.4926 102.528 48.7308C101.993 48.969 101.365 49.0881 100.645 49.0881Z" fill="black"/>
</svg>
