<svg width="23" height="22" viewBox="0 0 23 22" fill="none" xmlns="http://www.w3.org/2000/svg">
<path d="M19.5641 7.46817L19.3069 8.0611C19.2667 8.15765 19.1989 8.24012 19.112 8.29813C19.0252 8.35614 18.9231 8.3871 18.8187 8.3871C18.7143 8.3871 18.6122 8.35614 18.5253 8.29813C18.4384 8.24012 18.3706 8.15765 18.3304 8.0611L18.0732 7.46817C17.6211 6.41927 16.7929 5.57828 15.7523 5.11115L14.9588 4.75603C14.8625 4.71166 14.7809 4.64056 14.7238 4.55115C14.6666 4.46175 14.6362 4.3578 14.6362 4.25163C14.6362 4.14545 14.6666 4.0415 14.7238 3.9521C14.7809 3.8627 14.8625 3.7916 14.9588 3.74722L15.7084 3.41305C16.7752 2.93262 17.6175 2.06052 18.0617 0.976415L18.3263 0.336353C18.3651 0.237205 18.4329 0.152084 18.5207 0.0920873C18.6085 0.0320902 18.7124 0 18.8187 0C18.925 0 19.0288 0.0320902 19.1167 0.0920873C19.2045 0.152084 19.2722 0.237205 19.3111 0.336353L19.5756 0.975368C20.0194 2.05968 20.8613 2.93215 21.9279 3.41305L22.6786 3.74827C22.7746 3.79277 22.8558 3.86386 22.9128 3.95315C22.9697 4.04243 23 4.14618 23 4.25215C23 4.35811 22.9697 4.46187 22.9128 4.55115C22.8558 4.64044 22.7746 4.71153 22.6786 4.75603L21.884 5.11011C20.8436 5.5777 20.0158 6.41906 19.5641 7.46817ZM18.8187 10.4768C19.5191 10.4768 20.1914 10.3615 20.8208 10.1499C20.88 10.6004 20.9096 11.0585 20.9096 11.5243C20.9096 17.31 16.229 22 10.4548 22C8.73749 22.0024 7.04622 21.5792 5.53165 20.7681L1.02748e-05 22L1.2295 16.4573C0.419967 14.9397 -0.00240197 13.2451 1.02748e-05 11.5243C1.02748e-05 5.73864 4.68063 1.0487 10.4548 1.0487C11.402 1.0487 12.3189 1.1744 13.1908 1.41115C12.7191 2.36958 12.499 3.4327 12.5514 4.50006C12.6038 5.56743 12.9269 6.60378 13.4902 7.51121C14.0535 8.41864 14.8384 9.16717 15.7708 9.68607C16.7031 10.205 17.7521 10.4771 18.8187 10.4768ZM5.22742 11.5243C5.22742 12.9135 5.77816 14.2458 6.75849 15.228C7.73882 16.2103 9.06843 16.7622 10.4548 16.7622C11.8412 16.7622 13.1708 16.2103 14.1512 15.228C15.1315 14.2458 15.6822 12.9135 15.6822 11.5243H13.5913C13.5913 12.3578 13.2608 13.1572 12.6726 13.7466C12.0844 14.3359 11.2867 14.667 10.4548 14.667C9.62299 14.667 8.82522 14.3359 8.23702 13.7466C7.64883 13.1572 7.31838 12.3578 7.31838 11.5243H5.22742Z" fill="black"/>
</svg>
