<svg width="21" height="22" viewBox="0 0 21 22" fill="none" xmlns="http://www.w3.org/2000/svg">
<path d="M10.955 0.176048C10.8282 0.0624332 10.6668 0 10.5 0C10.3332 0 10.1718 0.0624332 10.045 0.176048L0 9.19603V19.8C0 20.3835 0.221249 20.9431 0.615076 21.3556C1.0089 21.7682 1.54305 22 2.1 22H7.7C7.88565 22 8.0637 21.9227 8.19497 21.7852C8.32625 21.6477 8.4 21.4612 8.4 21.2667V16.8667C8.4 16.2832 8.62125 15.7236 9.01508 15.311C9.4089 14.8985 9.94304 14.6667 10.5 14.6667C11.057 14.6667 11.5911 14.8985 11.9849 15.311C12.3788 15.7236 12.6 16.2832 12.6 16.8667V21.2667C12.6 21.4612 12.6737 21.6477 12.805 21.7852C12.9363 21.9227 13.1143 22 13.3 22H18.9C19.457 22 19.9911 21.7682 20.3849 21.3556C20.7788 20.9431 21 20.3835 21 19.8V9.19603L10.955 0.176048Z" fill="black"/>
</svg>
