<svg width="21" height="22" viewBox="0 0 21 22" fill="none" xmlns="http://www.w3.org/2000/svg">
<path d="M8.0255 7.94444C8.6135 7.19889 9.50367 6.72222 10.5 6.72222C11.4963 6.72222 12.3865 7.19889 12.9745 7.94444C13.3616 8.43616 13.6073 9.03306 13.6829 9.6655C13.7585 10.298 13.6608 10.9399 13.4014 11.5164C13.1419 12.0929 12.7313 12.5803 12.2175 12.9216C11.7037 13.2629 11.1078 13.4442 10.4994 13.4442C9.891 13.4442 9.29513 13.2629 8.78131 12.9216C8.26748 12.5803 7.8569 12.0929 7.59744 11.5164C7.33798 10.9399 7.24035 10.298 7.31594 9.6655C7.39152 9.03306 7.63721 8.43616 8.02433 7.94444M14.8738 10.0833C14.8738 9.31089 14.6918 8.58244 14.3698 7.94444H19.25C19.7141 7.94444 20.1592 8.1376 20.4874 8.48141C20.8156 8.82523 21 9.29155 21 9.77778V10.3889C21 12.3286 19.593 14.3147 17.1325 15.0138C16.8796 14.5379 16.51 14.1415 16.0618 13.8656C15.6136 13.5897 15.1032 13.4443 14.5833 13.4444H13.475C13.9172 13.0158 14.2699 12.4959 14.5108 11.9174C14.7518 11.3389 14.8758 10.7145 14.875 10.0833M14.5833 14.6667C14.8133 14.666 15.0412 14.713 15.2538 14.8049C15.4664 14.8968 15.6595 15.0318 15.8221 15.2022C15.9848 15.3726 16.1136 15.5749 16.2014 15.7977C16.2891 16.0204 16.3339 16.2591 16.3333 16.5V17.1111C16.3333 19.5201 14.1633 22 10.5 22C6.83667 22 4.66667 19.5201 4.66667 17.1111V16.5C4.66605 16.2591 4.7109 16.0204 4.79862 15.7977C4.88635 15.5749 5.01523 15.3726 5.17786 15.2022C5.34048 15.0318 5.53365 14.8968 5.74624 14.8049C5.95884 14.713 6.18668 14.666 6.41667 14.6667H14.5833ZM0 10.3889C0 12.3286 1.407 14.3147 3.8675 15.0138C4.12035 14.5379 4.49001 14.1415 4.9382 13.8656C5.38638 13.5897 5.89682 13.4443 6.41667 13.4444H7.525C7.0828 13.0158 6.73011 12.4959 6.48916 11.9174C6.24821 11.3389 6.12422 10.7145 6.125 10.0833C6.125 9.31089 6.307 8.58244 6.63017 7.94444H1.75C1.28587 7.94444 0.840752 8.1376 0.512563 8.48141C0.184375 8.82523 0 9.29155 0 9.77778V10.3889ZM9.04167 3.36111C9.04167 2.46969 8.70365 1.61478 8.10197 0.984447C7.50029 0.354116 6.68424 0 5.83333 0C4.98243 0 4.16638 0.354116 3.5647 0.984447C2.96302 1.61478 2.625 2.46969 2.625 3.36111C2.625 4.25253 2.96302 5.10745 3.5647 5.73778C4.16638 6.36811 4.98243 6.72222 5.83333 6.72222C6.68424 6.72222 7.50029 6.36811 8.10197 5.73778C8.70365 5.10745 9.04167 4.25253 9.04167 3.36111ZM18.375 3.36111C18.375 2.46969 18.037 1.61478 17.4353 0.984447C16.8336 0.354116 16.0176 0 15.1667 0C14.3158 0 13.4997 0.354116 12.898 0.984447C12.2964 1.61478 11.9583 2.46969 11.9583 3.36111C11.9583 4.25253 12.2964 5.10745 12.898 5.73778C13.4997 6.36811 14.3158 6.72222 15.1667 6.72222C16.0176 6.72222 16.8336 6.36811 17.4353 5.73778C18.037 5.10745 18.375 4.25253 18.375 3.36111Z" fill="black"/>
</svg>
