<svg width="22" height="22" viewBox="0 0 22 22" fill="none" xmlns="http://www.w3.org/2000/svg">
<path d="M11 0C4.93466 0 0 4.93466 0 11C0 17.0653 4.93466 22 11 22C17.0653 22 22 17.0653 22 11C22 4.93466 17.0653 0 11 0ZM8.88462 16.9231H7.40385C6.78692 16.9224 6.19547 16.677 5.75924 16.2408C5.32301 15.8045 5.07762 15.2131 5.07692 14.5962V13.1154C5.07692 12.891 5.16607 12.6757 5.32476 12.5171C5.48344 12.3584 5.69866 12.2692 5.92308 12.2692C6.14749 12.2692 6.36271 12.3584 6.5214 12.5171C6.68008 12.6757 6.76923 12.891 6.76923 13.1154V14.5962C6.76923 14.7645 6.83609 14.9259 6.95511 15.0449C7.07412 15.1639 7.23554 15.2308 7.40385 15.2308H8.88462C9.10903 15.2308 9.32425 15.3199 9.48294 15.4786C9.64162 15.6373 9.73077 15.8525 9.73077 16.0769C9.73077 16.3013 9.64162 16.5166 9.48294 16.6752C9.32425 16.8339 9.10903 16.9231 8.88462 16.9231ZM8.88462 6.76923H7.40385C7.23554 6.76923 7.07412 6.83609 6.95511 6.95511C6.83609 7.07412 6.76923 7.23554 6.76923 7.40385V8.88462C6.76923 9.10903 6.68008 9.32425 6.5214 9.48294C6.36271 9.64162 6.14749 9.73077 5.92308 9.73077C5.69866 9.73077 5.48344 9.64162 5.32476 9.48294C5.16607 9.32425 5.07692 9.10903 5.07692 8.88462V7.40385C5.07762 6.78692 5.32301 6.19547 5.75924 5.75924C6.19547 5.32301 6.78692 5.07762 7.40385 5.07692H8.88462C9.10903 5.07692 9.32425 5.16607 9.48294 5.32476C9.64162 5.48344 9.73077 5.69866 9.73077 5.92308C9.73077 6.14749 9.64162 6.36271 9.48294 6.5214C9.32425 6.68008 9.10903 6.76923 8.88462 6.76923ZM16.9231 14.5962C16.9224 15.2131 16.677 15.8045 16.2408 16.2408C15.8045 16.677 15.2131 16.9224 14.5962 16.9231H13.1154C12.891 16.9231 12.6757 16.8339 12.5171 16.6752C12.3584 16.5166 12.2692 16.3013 12.2692 16.0769C12.2692 15.8525 12.3584 15.6373 12.5171 15.4786C12.6757 15.3199 12.891 15.2308 13.1154 15.2308H14.5962C14.7645 15.2308 14.9259 15.1639 15.0449 15.0449C15.1639 14.9259 15.2308 14.7645 15.2308 14.5962V13.1154C15.2308 12.891 15.3199 12.6757 15.4786 12.5171C15.6373 12.3584 15.8525 12.2692 16.0769 12.2692C16.3013 12.2692 16.5166 12.3584 16.6752 12.5171C16.8339 12.6757 16.9231 12.891 16.9231 13.1154V14.5962ZM16.9231 8.88462C16.9231 9.10903 16.8339 9.32425 16.6752 9.48294C16.5166 9.64162 16.3013 9.73077 16.0769 9.73077C15.8525 9.73077 15.6373 9.64162 15.4786 9.48294C15.3199 9.32425 15.2308 9.10903 15.2308 8.88462V7.40385C15.2308 7.23554 15.1639 7.07412 15.0449 6.95511C14.9259 6.83609 14.7645 6.76923 14.5962 6.76923H13.1154C12.891 6.76923 12.6757 6.68008 12.5171 6.5214C12.3584 6.36271 12.2692 6.14749 12.2692 5.92308C12.2692 5.69866 12.3584 5.48344 12.5171 5.32476C12.6757 5.16607 12.891 5.07692 13.1154 5.07692H14.5962C15.2131 5.07762 15.8045 5.32301 16.2408 5.75924C16.677 6.19547 16.9224 6.78692 16.9231 7.40385V8.88462Z" fill="black"/>
</svg>
