<svg width="19" height="22" viewBox="0 0 19 22" fill="none" xmlns="http://www.w3.org/2000/svg">
<path d="M7.53125 0C7.00911 0 6.50835 0.217298 6.13913 0.604092C5.76992 0.990886 5.5625 1.51549 5.5625 2.0625V3.4375C5.5625 3.98451 5.76992 4.50911 6.13913 4.89591C6.50835 5.2827 7.00911 5.5 7.53125 5.5H11.4688C11.9909 5.5 12.4917 5.2827 12.8609 4.89591C13.2301 4.50911 13.4375 3.98451 13.4375 3.4375V2.0625C13.4375 1.51549 13.2301 0.990886 12.8609 0.604092C12.4917 0.217298 11.9909 0 11.4688 0L7.53125 0ZM11.4688 1.375C11.6428 1.375 11.8097 1.44743 11.9328 1.57636C12.0559 1.7053 12.125 1.88016 12.125 2.0625V3.4375C12.125 3.61984 12.0559 3.7947 11.9328 3.92364C11.8097 4.05257 11.6428 4.125 11.4688 4.125H7.53125C7.3572 4.125 7.19028 4.05257 7.06721 3.92364C6.94414 3.7947 6.875 3.61984 6.875 3.4375V2.0625C6.875 1.88016 6.94414 1.7053 7.06721 1.57636C7.19028 1.44743 7.3572 1.375 7.53125 1.375H11.4688Z" fill="black"/>
<path d="M4.25 2.0625H2.9375C2.24131 2.0625 1.57363 2.35223 1.08134 2.86796C0.589062 3.38368 0.3125 4.08315 0.3125 4.8125V19.25C0.3125 19.9793 0.589062 20.6788 1.08134 21.1945C1.57363 21.7103 2.24131 22 2.9375 22H16.0625C16.7587 22 17.4264 21.7103 17.9187 21.1945C18.4109 20.6788 18.6875 19.9793 18.6875 19.25V4.8125C18.6875 4.08315 18.4109 3.38368 17.9187 2.86796C17.4264 2.35223 16.7587 2.0625 16.0625 2.0625H14.75V3.4375C14.75 3.88892 14.6651 4.33592 14.5002 4.75297C14.3353 5.17003 14.0936 5.54898 13.7889 5.86818C13.4843 6.18738 13.1225 6.44059 12.7244 6.61334C12.3263 6.78609 11.8996 6.875 11.4688 6.875H7.53125C6.66101 6.875 5.82641 6.51284 5.21106 5.86818C4.5957 5.22352 4.25 4.34918 4.25 3.4375V2.0625ZM12.125 11C12.125 10.6353 12.2633 10.2856 12.5094 10.0277C12.7556 9.76987 13.0894 9.625 13.4375 9.625C13.7856 9.625 14.1194 9.76987 14.3656 10.0277C14.6117 10.2856 14.75 10.6353 14.75 11V17.875C14.75 18.2397 14.6117 18.5894 14.3656 18.8473C14.1194 19.1051 13.7856 19.25 13.4375 19.25C13.0894 19.25 12.7556 19.1051 12.5094 18.8473C12.2633 18.5894 12.125 18.2397 12.125 17.875V11ZM4.25 16.5C4.25 16.1353 4.38828 15.7856 4.63442 15.5277C4.88056 15.2699 5.2144 15.125 5.5625 15.125C5.9106 15.125 6.24444 15.2699 6.49058 15.5277C6.73672 15.7856 6.875 16.1353 6.875 16.5V17.875C6.875 18.2397 6.73672 18.5894 6.49058 18.8473C6.24444 19.1051 5.9106 19.25 5.5625 19.25C5.2144 19.25 4.88056 19.1051 4.63442 18.8473C4.38828 18.5894 4.25 18.2397 4.25 17.875V16.5ZM9.5 12.375C9.8481 12.375 10.1819 12.5199 10.4281 12.7777C10.6742 13.0356 10.8125 13.3853 10.8125 13.75V17.875C10.8125 18.2397 10.6742 18.5894 10.4281 18.8473C10.1819 19.1051 9.8481 19.25 9.5 19.25C9.1519 19.25 8.81806 19.1051 8.57192 18.8473C8.32578 18.5894 8.1875 18.2397 8.1875 17.875V13.75C8.1875 13.3853 8.32578 13.0356 8.57192 12.7777C8.81806 12.5199 9.1519 12.375 9.5 12.375Z" fill="black"/>
</svg>
