<svg width="372" height="177" viewBox="0 0 372 177" fill="none" xmlns="http://www.w3.org/2000/svg">
<g filter="url(#filter0_d_512_1607)">
<rect x="8" y="6" width="356" height="161" rx="10" fill="white"/>
<path d="M31 144.424H328.324" stroke="#AFAFAF" stroke-width="2"/>
<path d="M54.4315 96.6714H51.9463C49.9856 96.6714 48.3961 98.2525 48.3961 100.203V137.99C48.3961 139.94 49.9856 141.521 51.9463 141.521H54.4315C56.3922 141.521 57.9817 139.94 57.9817 137.99V100.203C57.9817 98.2525 56.3922 96.6714 54.4315 96.6714Z" fill="#FF9800"/>
<path d="M48.2913 147.368V151.792C48.2913 152.339 48.1227 152.772 47.7854 153.089C47.454 153.407 47.0162 153.566 46.4718 153.566C45.9274 153.566 45.4866 153.407 45.1494 153.089C44.818 152.772 44.6523 152.339 44.6523 151.792H45.673C45.6789 152.062 45.747 152.277 45.8772 152.436C46.0133 152.595 46.2115 152.674 46.4718 152.674C46.7322 152.674 46.9304 152.595 47.0665 152.436C47.2026 152.271 47.2706 152.056 47.2706 151.792V147.368H48.2913ZM49.6 151.05C49.6 150.561 49.7006 150.129 49.9018 149.752C50.1089 149.375 50.387 149.084 50.7361 148.878C51.0911 148.666 51.4817 148.56 51.9077 148.56C52.2923 148.56 52.6266 148.637 52.9106 148.79C53.2006 148.937 53.4313 149.122 53.6029 149.346V148.64H54.6236V153.504H53.6029V152.78C53.4313 153.01 53.1976 153.201 52.9018 153.354C52.6059 153.507 52.2686 153.584 51.8899 153.584C51.4698 153.584 51.0852 153.478 50.7361 153.266C50.387 153.048 50.1089 152.748 49.9018 152.365C49.7006 151.977 49.6 151.538 49.6 151.05ZM53.6029 151.068C53.6029 150.732 53.5319 150.441 53.3899 150.194C53.2538 149.946 53.0733 149.758 52.8485 149.629C52.6237 149.499 52.381 149.434 52.1207 149.434C51.8604 149.434 51.6177 149.499 51.3929 149.629C51.1681 149.752 50.9846 149.938 50.8426 150.185C50.7065 150.426 50.6385 150.714 50.6385 151.05C50.6385 151.385 50.7065 151.68 50.8426 151.933C50.9846 152.186 51.1681 152.38 51.3929 152.516C51.6237 152.645 51.8663 152.71 52.1207 152.71C52.381 152.71 52.6237 152.645 52.8485 152.516C53.0733 152.386 53.2538 152.198 53.3899 151.95C53.5319 151.697 53.6029 151.403 53.6029 151.068ZM58.42 148.56C58.8046 148.56 59.1478 148.64 59.4496 148.799C59.7572 148.958 59.9969 149.193 60.1685 149.505C60.3401 149.817 60.4259 150.194 60.4259 150.635V153.504H59.423V150.785C59.423 150.349 59.3135 150.017 59.0946 149.787C58.8756 149.552 58.5768 149.434 58.1981 149.434C57.8194 149.434 57.5177 149.552 57.2928 149.787C57.0739 150.017 56.9644 150.349 56.9644 150.785V153.504H55.9526V148.64H56.9644V149.196C57.1301 148.996 57.3401 148.84 57.5946 148.728C57.8549 148.616 58.1301 148.56 58.42 148.56Z" fill="black"/>
<path d="M77.508 73.3636H75.0229C73.0621 73.3636 71.4727 74.9447 71.4727 76.8951V137.99C71.4727 139.94 73.0621 141.521 75.0229 141.521H77.508C79.4688 141.521 81.0583 139.94 81.0583 137.99V76.8951C81.0583 74.9447 79.4688 73.3636 77.508 73.3636Z" fill="#FF9800"/>
<path d="M71.998 147.368V148.189H69.3797V149.999H71.4211V150.82H69.3797V153.504H68.3679V147.368H71.998ZM77.4182 150.953C77.4182 151.135 77.4061 151.3 77.3827 151.447H73.646C73.6755 151.836 73.8204 152.147 74.0809 152.383C74.3412 152.618 74.6607 152.736 75.0395 152.736C75.5838 152.736 75.9682 152.509 76.1933 152.056H77.285C77.137 152.503 76.8679 152.871 76.4774 153.16C76.0925 153.442 75.6132 153.584 75.0395 153.584C74.5719 153.584 74.152 153.481 73.7792 153.275C73.4121 153.063 73.1224 152.768 72.9094 152.392C72.702 152.009 72.5987 151.568 72.5987 151.068C72.5987 150.567 72.6992 150.129 72.9005 149.752C73.1075 149.369 73.3943 149.075 73.7614 148.869C74.1342 148.663 74.5602 148.56 75.0395 148.56C75.501 148.56 75.9122 148.66 76.2732 148.86C76.6339 149.06 76.9151 149.343 77.1164 149.708C77.3173 150.067 77.4182 150.482 77.4182 150.953ZM76.362 150.635C76.3559 150.264 76.2228 149.967 75.9626 149.743C75.702 149.519 75.3796 149.408 74.9951 149.408C74.6458 149.408 74.3472 149.519 74.0987 149.743C73.8502 149.961 73.7021 150.258 73.6549 150.635H76.362ZM79.4255 149.364C79.5973 149.128 79.8309 148.937 80.1266 148.79C80.4284 148.637 80.7628 148.56 81.1296 148.56C81.5616 148.56 81.9522 148.663 82.3012 148.869C82.6505 149.075 82.9256 149.369 83.1266 149.752C83.3279 150.129 83.4283 150.561 83.4283 151.05C83.4283 151.538 83.3279 151.977 83.1266 152.365C82.9256 152.748 82.6473 153.048 82.2923 153.266C81.9433 153.478 81.5556 153.584 81.1296 153.584C80.7511 153.584 80.4138 153.51 80.1178 153.363C79.8281 153.216 79.5973 153.028 79.4255 152.798V153.504H78.4136V146.971H79.4255V149.364ZM82.3988 151.05C82.3988 150.714 82.3278 150.426 82.1858 150.185C82.0498 149.937 81.8662 149.752 81.6355 149.628C81.4108 149.499 81.1683 149.434 80.9077 149.434C80.6535 149.434 80.4107 149.499 80.1799 149.628C79.9552 149.758 79.7716 149.946 79.6296 150.194C79.4936 150.441 79.4255 150.732 79.4255 151.068C79.4255 151.403 79.4936 151.697 79.6296 151.95C79.7716 152.198 79.9552 152.386 80.1799 152.515C80.4107 152.645 80.6535 152.71 80.9077 152.71C81.1683 152.71 81.4108 152.645 81.6355 152.515C81.8662 152.38 82.0498 152.186 82.1858 151.933C82.3278 151.68 82.3988 151.385 82.3988 151.05Z" fill="black"/>
<path d="M100.584 96.6714H98.0993C96.1386 96.6714 94.5491 98.2525 94.5491 100.203V137.99C94.5491 139.94 96.1386 141.521 98.0993 141.521H100.584C102.545 141.521 104.135 139.94 104.135 137.99V100.203C104.135 98.2525 102.545 96.6714 100.584 96.6714Z" fill="#FF9800"/>
<path d="M97.5252 147.368V153.504H96.5134V149.302L94.6318 153.504H93.9306L92.0401 149.302V153.504H91.0283V147.368H92.12L94.2857 152.18L96.4424 147.368H97.5252ZM98.5179 151.05C98.5179 150.561 98.6184 150.129 98.8197 149.752C99.0266 149.375 99.305 149.084 99.654 148.878C100.009 148.666 100.4 148.56 100.826 148.56C101.21 148.56 101.544 148.637 101.828 148.79C102.119 148.937 102.349 149.122 102.521 149.346V148.64H103.541V153.504H102.521V152.78C102.349 153.01 102.115 153.201 101.82 153.354C101.524 153.507 101.187 153.584 100.808 153.584C100.388 153.584 100.003 153.478 99.654 153.266C99.305 153.048 99.0266 152.748 98.8197 152.365C98.6184 151.977 98.5179 151.538 98.5179 151.05ZM102.521 151.068C102.521 150.732 102.45 150.441 102.308 150.194C102.172 149.946 101.991 149.758 101.766 149.629C101.542 149.499 101.299 149.434 101.039 149.434C100.778 149.434 100.535 149.499 100.311 149.629C100.086 149.752 99.9025 149.938 99.7605 150.185C99.6245 150.426 99.5563 150.714 99.5563 151.05C99.5563 151.385 99.6245 151.68 99.7605 151.933C99.9025 152.186 100.086 152.38 100.311 152.516C100.542 152.645 100.784 152.71 101.039 152.71C101.299 152.71 101.542 152.645 101.766 152.516C101.991 152.386 102.172 152.198 102.308 151.95C102.45 151.697 102.521 151.403 102.521 151.068ZM105.882 149.346C106.03 149.099 106.225 148.907 106.468 148.772C106.716 148.631 107.009 148.56 107.347 148.56V149.602H107.089C106.693 149.602 106.391 149.702 106.184 149.902C105.983 150.102 105.882 150.45 105.882 150.944V153.504H104.87V148.64H105.882V149.346Z" fill="black"/>
<path d="M123.661 64.8881H121.176C119.215 64.8881 117.626 66.4692 117.626 68.4195V137.989C117.626 139.94 119.215 141.521 121.176 141.521H123.661C125.622 141.521 127.211 139.94 127.211 137.989V68.4195C127.211 66.4692 125.622 64.8881 123.661 64.8881Z" fill="#FF9800"/>
<path d="M118.465 152.388H115.882L115.439 153.642H114.382L116.592 147.497H117.764L119.974 153.642H118.909L118.465 152.388ZM118.181 151.567L117.178 148.715L116.166 151.567H118.181ZM121.947 149.492C122.118 149.268 122.352 149.08 122.648 148.927C122.944 148.774 123.278 148.698 123.651 148.698C124.077 148.698 124.464 148.804 124.814 149.015C125.169 149.221 125.447 149.513 125.648 149.89C125.849 150.266 125.95 150.699 125.95 151.187C125.95 151.676 125.849 152.114 125.648 152.503C125.447 152.885 125.169 153.185 124.814 153.403C124.464 153.615 124.077 153.721 123.651 153.721C123.278 153.721 122.947 153.647 122.657 153.5C122.367 153.347 122.13 153.159 121.947 152.935V155.955H120.935V148.777H121.947V149.492ZM124.92 151.187C124.92 150.852 124.849 150.563 124.707 150.322C124.571 150.075 124.388 149.89 124.157 149.766C123.932 149.636 123.689 149.572 123.429 149.572C123.175 149.572 122.932 149.636 122.701 149.766C122.476 149.895 122.293 150.084 122.151 150.331C122.015 150.578 121.947 150.87 121.947 151.205C121.947 151.54 122.015 151.835 122.151 152.088C122.293 152.335 122.476 152.523 122.701 152.653C122.932 152.782 123.175 152.847 123.429 152.847C123.689 152.847 123.932 152.782 124.157 152.653C124.388 152.517 124.571 152.323 124.707 152.07C124.849 151.817 124.92 151.523 124.92 151.187ZM127.962 149.483C128.11 149.236 128.305 149.045 128.548 148.91C128.796 148.768 129.089 148.698 129.427 148.698V149.739H129.169C128.773 149.739 128.471 149.839 128.264 150.04C128.063 150.239 127.962 150.587 127.962 151.081V153.642H126.95V148.777H127.962V149.483Z" fill="black"/>
<path d="M146.737 73.3636H144.252C142.292 73.3636 140.702 74.9447 140.702 76.8951V137.99C140.702 139.94 142.292 141.521 144.252 141.521H146.737C148.698 141.521 150.288 139.94 150.288 137.99V76.8951C150.288 74.9447 148.698 73.3636 146.737 73.3636Z" fill="#FF9800"/>
<path d="M144.48 147.368V153.504H143.468V149.302L141.586 153.504H140.885L138.995 149.302V153.504H137.983V147.368H139.075L141.24 152.18L143.397 147.368H144.48ZM150.292 150.953C150.292 151.135 150.28 151.3 150.256 151.447H146.52C146.55 151.836 146.694 152.148 146.955 152.383C147.215 152.618 147.535 152.736 147.913 152.736C148.458 152.736 148.842 152.51 149.067 152.056H150.159C150.011 152.504 149.742 152.872 149.351 153.16C148.967 153.443 148.487 153.584 147.913 153.584C147.446 153.584 147.026 153.481 146.653 153.275C146.286 153.063 145.996 152.768 145.783 152.392C145.576 152.009 145.472 151.568 145.472 151.068C145.472 150.567 145.573 150.129 145.774 149.752C145.982 149.369 146.268 149.075 146.635 148.869C147.008 148.663 147.434 148.56 147.913 148.56C148.375 148.56 148.786 148.66 149.147 148.86C149.508 149.06 149.789 149.343 149.99 149.708C150.191 150.067 150.292 150.482 150.292 150.953ZM149.236 150.635C149.23 150.264 149.097 149.967 148.836 149.743C148.576 149.519 148.254 149.408 147.869 149.408C147.52 149.408 147.221 149.519 146.972 149.743C146.724 149.961 146.576 150.258 146.529 150.635H149.236ZM151.803 147.995C151.619 147.995 151.465 147.933 151.341 147.81C151.217 147.686 151.155 147.533 151.155 147.351C151.155 147.168 151.217 147.015 151.341 146.892C151.465 146.768 151.619 146.706 151.803 146.706C151.98 146.706 152.131 146.768 152.255 146.892C152.379 147.015 152.442 147.168 152.442 147.351C152.442 147.533 152.379 147.686 152.255 147.81C152.131 147.933 151.98 147.995 151.803 147.995ZM152.3 148.64V153.504H151.288V148.64H152.3Z" fill="black"/>
<path d="M169.814 100.203H167.329C165.368 100.203 163.779 101.784 163.779 103.734V137.989C163.779 139.94 165.368 141.521 167.329 141.521H169.814C171.775 141.521 173.364 139.94 173.364 137.989V103.734C173.364 101.784 171.775 100.203 169.814 100.203Z" fill="#FF9800"/>
<path d="M163.977 147.368V151.792C163.977 152.339 163.808 152.772 163.471 153.089C163.14 153.407 162.702 153.566 162.158 153.566C161.613 153.566 161.172 153.407 160.835 153.089C160.504 152.772 160.338 152.339 160.338 151.792H161.359C161.365 152.062 161.433 152.277 161.563 152.436C161.699 152.595 161.897 152.674 162.158 152.674C162.418 152.674 162.616 152.595 162.752 152.436C162.888 152.271 162.956 152.056 162.956 151.792V147.368H163.977ZM170.052 148.64V153.504H169.04V152.93C168.88 153.13 168.67 153.289 168.41 153.407C168.156 153.519 167.883 153.575 167.593 153.575C167.209 153.575 166.863 153.496 166.555 153.337C166.253 153.178 166.013 152.942 165.836 152.63C165.664 152.318 165.579 151.942 165.579 151.5V148.64H166.581V151.35C166.581 151.786 166.691 152.121 166.91 152.357C167.129 152.586 167.428 152.701 167.806 152.701C168.185 152.701 168.484 152.586 168.703 152.357C168.928 152.121 169.04 151.786 169.04 151.35V148.64H170.052ZM173.854 148.56C174.239 148.56 174.582 148.64 174.884 148.799C175.191 148.958 175.431 149.193 175.603 149.505C175.774 149.817 175.86 150.194 175.86 150.635V153.504H174.857V150.785C174.857 150.349 174.748 150.017 174.529 149.787C174.31 149.552 174.011 149.434 173.633 149.434C173.254 149.434 172.952 149.552 172.727 149.787C172.508 150.017 172.399 150.349 172.399 150.785V153.504H171.387V148.64H172.399V149.196C172.564 148.996 172.774 148.84 173.029 148.728C173.289 148.616 173.564 148.56 173.854 148.56Z" fill="black"/>
<path d="M192.89 73.3636H190.405C188.444 73.3636 186.855 74.9447 186.855 76.8951V137.99C186.855 139.94 188.444 141.521 190.405 141.521H192.89C194.851 141.521 196.441 139.94 196.441 137.99V76.8951C196.441 74.9447 194.851 73.3636 192.89 73.3636Z" fill="#FF9800"/>
<path d="M188.765 147.368V151.792C188.765 152.339 188.597 152.772 188.26 153.089C187.928 153.407 187.49 153.566 186.946 153.566C186.401 153.566 185.961 153.407 185.623 153.089C185.292 152.772 185.126 152.339 185.126 151.792H186.147C186.153 152.062 186.221 152.277 186.351 152.436C186.487 152.595 186.685 152.674 186.946 152.674C187.206 152.674 187.404 152.595 187.541 152.436C187.677 152.271 187.745 152.056 187.745 151.792V147.368H188.765ZM194.84 148.64V153.504H193.828V152.93C193.669 153.13 193.458 153.289 193.198 153.407C192.944 153.519 192.672 153.575 192.382 153.575C191.997 153.575 191.651 153.495 191.343 153.337C191.041 153.178 190.802 152.942 190.624 152.63C190.453 152.318 190.367 151.942 190.367 151.5V148.64H191.37V151.35C191.37 151.786 191.479 152.121 191.698 152.357C191.917 152.586 192.216 152.701 192.595 152.701C192.974 152.701 193.272 152.586 193.491 152.357C193.716 152.121 193.828 151.786 193.828 151.35V148.64H194.84ZM197.187 146.971V153.504H196.175V146.971H197.187Z" fill="black"/>
<path d="M215.967 123.157H213.482C211.521 123.157 209.932 124.738 209.932 126.689V137.99C209.932 139.94 211.521 141.521 213.482 141.521H215.967C217.928 141.521 219.517 139.94 219.517 137.99V126.689C219.517 124.738 217.928 123.157 215.967 123.157Z" fill="#FF9800"/>
<path d="M209.77 152.251H207.187L206.743 153.504H205.687L207.897 147.36H209.069L211.279 153.504H210.214L209.77 152.251ZM209.486 151.43L208.483 148.578L207.471 151.43H209.486ZM214.21 148.56C214.589 148.56 214.923 148.637 215.213 148.79C215.509 148.937 215.74 149.122 215.905 149.346V148.64H216.926V153.584C216.926 154.031 216.831 154.428 216.642 154.776C216.453 155.129 216.177 155.405 215.816 155.606C215.461 155.805 215.035 155.906 214.538 155.906C213.876 155.906 213.326 155.75 212.887 155.438C212.45 155.132 212.201 154.714 212.142 154.184H213.145C213.222 154.437 213.385 154.64 213.633 154.793C213.888 154.952 214.189 155.032 214.538 155.032C214.947 155.032 215.275 154.908 215.524 154.661C215.778 154.414 215.905 154.055 215.905 153.584V152.772C215.734 153.001 215.5 153.195 215.204 153.354C214.914 153.507 214.583 153.584 214.21 153.584C213.784 153.584 213.393 153.478 213.038 153.266C212.689 153.048 212.411 152.748 212.204 152.365C212.003 151.977 211.902 151.538 211.902 151.05C211.902 150.561 212.003 150.129 212.204 149.752C212.411 149.375 212.689 149.084 213.038 148.878C213.393 148.666 213.784 148.56 214.21 148.56ZM215.905 151.068C215.905 150.732 215.834 150.441 215.692 150.194C215.556 149.946 215.376 149.758 215.151 149.629C214.926 149.499 214.684 149.434 214.423 149.434C214.163 149.434 213.92 149.499 213.695 149.629C213.47 149.752 213.287 149.938 213.145 150.185C213.009 150.426 212.941 150.715 212.941 151.05C212.941 151.385 213.009 151.68 213.145 151.933C213.287 152.186 213.47 152.38 213.695 152.516C213.926 152.645 214.169 152.71 214.423 152.71C214.684 152.71 214.926 152.645 215.151 152.516C215.376 152.386 215.556 152.198 215.692 151.951C215.834 151.697 215.905 151.403 215.905 151.068ZM222.684 148.64V153.504H221.672V152.931C221.512 153.13 221.302 153.289 221.042 153.407C220.787 153.519 220.515 153.575 220.225 153.575C219.841 153.575 219.494 153.496 219.187 153.337C218.885 153.178 218.646 152.942 218.468 152.63C218.296 152.318 218.211 151.942 218.211 151.5V148.64H219.214V151.35C219.214 151.786 219.323 152.121 219.542 152.357C219.761 152.586 220.06 152.701 220.438 152.701C220.817 152.701 221.116 152.586 221.335 152.357C221.56 152.121 221.672 151.786 221.672 151.35V148.64H222.684Z" fill="black"/>
<path d="M239.043 91.3741H236.558C234.598 91.3741 233.008 92.9552 233.008 94.9056V137.99C233.008 139.94 234.598 141.521 236.558 141.521H239.043C241.004 141.521 242.594 139.94 242.594 137.99V94.9056C242.594 92.9552 241.004 91.3741 239.043 91.3741Z" fill="#FF9800"/>
<path d="M231.542 153.566C231.127 153.566 230.755 153.495 230.423 153.354C230.092 153.207 229.832 153.001 229.642 152.736C229.453 152.471 229.358 152.162 229.358 151.809H230.441C230.465 152.074 230.568 152.292 230.752 152.463C230.941 152.633 231.205 152.719 231.542 152.719C231.891 152.719 232.163 152.636 232.358 152.471C232.554 152.3 232.651 152.083 232.651 151.818C232.651 151.612 232.589 151.444 232.465 151.315C232.346 151.185 232.195 151.085 232.012 151.015C231.835 150.944 231.586 150.867 231.267 150.785C230.864 150.679 230.536 150.573 230.281 150.467C230.033 150.355 229.82 150.185 229.642 149.955C229.465 149.726 229.376 149.419 229.376 149.037C229.376 148.684 229.465 148.375 229.642 148.11C229.82 147.845 230.068 147.642 230.388 147.501C230.707 147.36 231.077 147.289 231.497 147.289C232.095 147.289 232.583 147.439 232.962 147.739C233.346 148.033 233.559 148.439 233.601 148.958H232.483C232.465 148.734 232.358 148.543 232.163 148.384C231.968 148.225 231.71 148.145 231.391 148.145C231.101 148.145 230.864 148.219 230.681 148.366C230.497 148.513 230.406 148.725 230.406 149.002C230.406 149.19 230.462 149.346 230.574 149.47C230.693 149.587 230.841 149.682 231.018 149.752C231.196 149.823 231.438 149.899 231.746 149.982C232.154 150.093 232.485 150.205 232.74 150.317C233 150.429 233.219 150.603 233.397 150.838C233.58 151.068 233.672 151.377 233.672 151.765C233.672 152.077 233.586 152.371 233.415 152.648C233.249 152.924 233.003 153.148 232.678 153.319C232.358 153.483 231.98 153.566 231.542 153.566ZM239.348 150.953C239.348 151.135 239.336 151.3 239.312 151.447H235.576C235.605 151.836 235.75 152.148 236.01 152.383C236.271 152.618 236.591 152.736 236.969 152.736C237.514 152.736 237.898 152.51 238.123 152.056H239.215C239.067 152.504 238.797 152.871 238.407 153.16C238.022 153.443 237.543 153.584 236.969 153.584C236.502 153.584 236.081 153.481 235.709 153.275C235.342 153.063 235.052 152.768 234.839 152.392C234.632 152.009 234.528 151.568 234.528 151.068C234.528 150.567 234.629 150.129 234.83 149.752C235.037 149.369 235.324 149.075 235.691 148.869C236.064 148.663 236.49 148.56 236.969 148.56C237.431 148.56 237.842 148.66 238.203 148.86C238.564 149.06 238.845 149.343 239.046 149.708C239.247 150.067 239.348 150.482 239.348 150.953ZM238.292 150.635C238.286 150.264 238.153 149.967 237.892 149.743C237.632 149.519 237.309 149.408 236.925 149.408C236.576 149.408 236.277 149.519 236.028 149.743C235.78 149.961 235.632 150.258 235.584 150.635H238.292ZM241.355 149.355C241.527 149.131 241.761 148.943 242.057 148.79C242.352 148.637 242.687 148.56 243.059 148.56C243.485 148.56 243.873 148.666 244.222 148.878C244.577 149.084 244.855 149.375 245.056 149.752C245.258 150.129 245.358 150.561 245.358 151.05C245.358 151.538 245.258 151.977 245.056 152.365C244.855 152.748 244.577 153.048 244.222 153.266C243.873 153.478 243.485 153.584 243.059 153.584C242.687 153.584 242.355 153.51 242.065 153.363C241.775 153.21 241.539 153.022 241.355 152.798V155.817H240.344V148.64H241.355V149.355ZM244.329 151.05C244.329 150.714 244.258 150.426 244.116 150.185C243.98 149.938 243.796 149.752 243.565 149.629C243.341 149.499 243.098 149.434 242.838 149.434C242.583 149.434 242.341 149.499 242.11 149.629C241.885 149.758 241.701 149.946 241.559 150.194C241.423 150.441 241.355 150.732 241.355 151.068C241.355 151.403 241.423 151.697 241.559 151.95C241.701 152.198 241.885 152.386 242.11 152.516C242.341 152.645 242.583 152.71 242.838 152.71C243.098 152.71 243.341 152.645 243.565 152.516C243.796 152.38 243.98 152.186 244.116 151.933C244.258 151.68 244.329 151.385 244.329 151.05Z" fill="black"/>
<path d="M262.12 64.8881H259.635C257.674 64.8881 256.084 66.4692 256.084 68.4195V137.989C256.084 139.94 257.674 141.521 259.635 141.521H262.12C264.081 141.521 265.67 139.94 265.67 137.989V68.4195C265.67 66.4692 264.081 64.8881 262.12 64.8881Z" fill="#FF9800"/>
<path d="M256.413 153.566C255.839 153.566 255.31 153.434 254.824 153.169C254.345 152.898 253.963 152.524 253.679 152.048C253.401 151.565 253.262 151.023 253.262 150.423C253.262 149.823 253.401 149.284 253.679 148.807C253.963 148.331 254.345 147.96 254.824 147.695C255.31 147.424 255.839 147.289 256.413 147.289C256.993 147.289 257.522 147.424 258.002 147.695C258.487 147.96 258.869 148.331 259.147 148.807C259.425 149.284 259.564 149.823 259.564 150.423C259.564 151.023 259.425 151.565 259.147 152.048C258.869 152.524 258.487 152.898 258.002 153.169C257.522 153.434 256.993 153.566 256.413 153.566ZM256.413 152.692C256.821 152.692 257.185 152.601 257.505 152.418C257.824 152.23 258.073 151.965 258.25 151.624C258.434 151.276 258.525 150.876 258.525 150.423C258.525 149.97 258.434 149.572 258.25 149.231C258.073 148.89 257.824 148.628 257.505 148.445C257.185 148.263 256.821 148.172 256.413 148.172C256.005 148.172 255.641 148.263 255.321 148.445C255.002 148.628 254.75 148.89 254.567 149.231C254.389 149.572 254.301 149.97 254.301 150.423C254.301 150.876 254.389 151.276 254.567 151.624C254.75 151.965 255.002 152.23 255.321 152.418C255.641 152.601 256.005 152.692 256.413 152.692ZM262.494 151.076L264.749 153.504H263.382L261.571 151.412V153.504H260.56V146.971H261.571V150.767L263.347 148.64H264.749L262.494 151.076ZM266.655 149.461V152.153C266.655 152.336 266.696 152.468 266.779 152.551C266.868 152.627 267.015 152.666 267.223 152.666H267.844V153.504H267.045C266.589 153.504 266.24 153.398 265.998 153.186C265.755 152.975 265.634 152.63 265.634 152.153V149.461H265.057V148.64H265.634V147.43H266.655V148.64H267.844V149.461H266.655Z" fill="black"/>
<path d="M285.196 112.563H282.711C280.75 112.563 279.161 114.144 279.161 116.094V137.99C279.161 139.94 280.75 141.521 282.711 141.521H285.196C287.157 141.521 288.747 139.94 288.747 137.99V116.094C288.747 114.144 287.157 112.563 285.196 112.563Z" fill="#FF9800"/>
<path d="M280.747 153.504H279.735L276.691 148.922V153.504H275.679V147.36H276.691L279.735 151.933V147.36H280.747V153.504ZM284.197 153.584C283.735 153.584 283.318 153.481 282.945 153.275C282.573 153.063 282.28 152.768 282.067 152.392C281.854 152.009 281.747 151.568 281.747 151.068C281.747 150.573 281.857 150.135 282.076 149.752C282.295 149.369 282.594 149.075 282.972 148.869C283.351 148.663 283.774 148.56 284.241 148.56C284.709 148.56 285.132 148.663 285.51 148.869C285.889 149.075 286.188 149.369 286.407 149.752C286.626 150.135 286.735 150.573 286.735 151.068C286.735 151.562 286.623 152 286.398 152.383C286.173 152.766 285.866 153.063 285.475 153.275C285.09 153.481 284.664 153.584 284.197 153.584ZM284.197 152.71C284.457 152.71 284.7 152.648 284.925 152.524C285.155 152.401 285.342 152.215 285.484 151.968C285.626 151.721 285.697 151.421 285.697 151.068C285.697 150.715 285.629 150.417 285.493 150.176C285.357 149.929 285.176 149.743 284.951 149.62C284.727 149.496 284.484 149.434 284.224 149.434C283.963 149.434 283.721 149.496 283.496 149.62C283.277 149.743 283.102 149.929 282.972 150.176C282.842 150.417 282.777 150.715 282.777 151.068C282.777 151.591 282.91 151.998 283.176 152.286C283.449 152.569 283.789 152.71 284.197 152.71ZM289.626 152.604L291.011 148.64H292.085L290.221 153.504H289.014L287.159 148.64H288.242L289.626 152.604Z" fill="black"/>
<path d="M308.273 73.3636H305.788C303.827 73.3636 302.237 74.9447 302.237 76.8951V137.99C302.237 139.94 303.827 141.521 305.788 141.521H308.273C310.234 141.521 311.823 139.94 311.823 137.99V76.8951C311.823 74.9447 310.234 73.3636 308.273 73.3636Z" fill="#FF9800"/>
<path d="M301.1 147.368C301.757 147.368 302.33 147.495 302.822 147.748C303.319 147.995 303.701 148.354 303.967 148.825C304.239 149.29 304.375 149.834 304.375 150.458C304.375 151.082 304.239 151.624 303.967 152.083C303.701 152.542 303.319 152.895 302.822 153.142C302.33 153.384 301.757 153.504 301.1 153.504H299.085V147.368H301.1ZM301.1 152.683C301.822 152.683 302.375 152.489 302.76 152.101C303.144 151.712 303.337 151.165 303.337 150.458C303.337 149.746 303.144 149.19 302.76 148.79C302.375 148.389 301.822 148.189 301.1 148.189H300.097V152.683H301.1ZM309.86 150.953C309.86 151.135 309.848 151.3 309.824 151.447H306.088C306.117 151.836 306.262 152.148 306.523 152.383C306.783 152.618 307.103 152.736 307.481 152.736C308.026 152.736 308.41 152.51 308.635 152.056H309.727C309.579 152.504 309.31 152.871 308.919 153.16C308.535 153.443 308.055 153.584 307.481 153.584C307.014 153.584 306.594 153.481 306.221 153.275C305.854 153.063 305.564 152.768 305.351 152.392C305.144 152.009 305.04 151.568 305.04 151.068C305.04 150.567 305.141 150.129 305.342 149.752C305.549 149.369 305.836 149.075 306.203 148.869C306.576 148.663 307.002 148.56 307.481 148.56C307.943 148.56 308.354 148.66 308.715 148.86C309.076 149.06 309.357 149.343 309.558 149.708C309.759 150.067 309.86 150.482 309.86 150.953ZM308.804 150.635C308.798 150.264 308.665 149.967 308.404 149.743C308.144 149.519 307.822 149.408 307.437 149.408C307.088 149.408 306.789 149.519 306.54 149.743C306.292 149.961 306.144 150.258 306.097 150.635H308.804ZM312.631 153.584C312.246 153.584 311.9 153.516 311.592 153.381C311.291 153.239 311.051 153.051 310.873 152.816C310.696 152.574 310.601 152.306 310.589 152.012H311.637C311.654 152.218 311.752 152.392 311.93 152.533C312.113 152.668 312.341 152.736 312.613 152.736C312.897 152.736 313.116 152.683 313.27 152.577C313.43 152.465 313.509 152.324 313.509 152.154C313.509 151.971 313.421 151.836 313.243 151.747C313.072 151.659 312.797 151.562 312.418 151.456C312.051 151.356 311.752 151.259 311.521 151.165C311.291 151.07 311.089 150.926 310.918 150.732C310.752 150.538 310.669 150.282 310.669 149.964C310.669 149.705 310.746 149.47 310.9 149.258C311.054 149.04 311.273 148.869 311.557 148.746C311.847 148.622 312.178 148.56 312.551 148.56C313.107 148.56 313.554 148.702 313.891 148.984C314.234 149.261 314.418 149.64 314.441 150.123H313.43C313.412 149.905 313.323 149.731 313.163 149.602C313.004 149.472 312.788 149.408 312.515 149.408C312.249 149.408 312.045 149.458 311.903 149.558C311.761 149.658 311.69 149.79 311.69 149.955C311.69 150.084 311.737 150.194 311.832 150.282C311.927 150.37 312.042 150.441 312.178 150.494C312.314 150.541 312.515 150.603 312.782 150.679C313.137 150.773 313.427 150.87 313.651 150.97C313.882 151.064 314.08 151.206 314.246 151.394C314.412 151.583 314.497 151.833 314.503 152.145C314.503 152.421 314.426 152.668 314.273 152.886C314.119 153.104 313.9 153.275 313.616 153.398C313.338 153.522 313.01 153.584 312.631 153.584Z" fill="black"/>
<path d="M44.4908 137.955H341.815" stroke="#AFAFAF" stroke-opacity="0.5" stroke-dasharray="2 2"/>
<path d="M31.2556 136.577V135.989H32.4371V140.108H31.7839V136.577H31.2556ZM33.3267 137.995C33.3267 137.344 33.4365 136.835 33.6562 136.47C33.8796 136.101 34.2621 135.916 34.8036 135.916C35.3452 135.916 35.7257 136.101 35.9454 136.47C36.1688 136.835 36.2805 137.344 36.2805 137.995C36.2805 138.655 36.1688 139.17 35.9454 139.543C35.7257 139.912 35.3452 140.097 34.8036 140.097C34.2621 140.097 33.8796 139.912 33.6562 139.543C33.4365 139.17 33.3267 138.655 33.3267 137.995ZM35.6443 137.995C35.6443 137.69 35.6235 137.432 35.5819 137.221C35.544 137.01 35.4644 136.839 35.3433 136.707C35.2221 136.571 35.0422 136.504 34.8036 136.504C34.5651 136.504 34.3852 136.571 34.264 136.707C34.1428 136.839 34.0614 137.01 34.0197 137.221C33.9819 137.432 33.9629 137.69 33.9629 137.995C33.9629 138.312 33.9819 138.577 34.0197 138.792C34.0576 139.007 34.1371 139.18 34.2583 139.312C34.3833 139.443 34.5651 139.51 34.8036 139.51C35.0422 139.51 35.2221 139.443 35.3433 139.312C35.4682 139.18 35.5497 139.007 35.5875 138.792C35.6254 138.577 35.6443 138.312 35.6443 137.995ZM36.8635 136.984C36.8635 136.709 36.943 136.494 37.1021 136.34C37.2649 136.181 37.4732 136.102 37.7269 136.102C37.9806 136.102 38.187 136.181 38.3461 136.34C38.5089 136.494 38.5903 136.709 38.5903 136.984C38.5903 137.259 38.5089 137.475 38.3461 137.634C38.187 137.792 37.9806 137.871 37.7269 137.871C37.4732 137.871 37.2649 137.792 37.1021 137.634C36.943 137.475 36.8635 137.259 36.8635 136.984ZM40.3285 136.176L38.062 140.108H37.4258L39.6923 136.176H40.3285ZM37.7269 136.492C37.4883 136.492 37.369 136.656 37.369 136.984C37.369 137.315 37.4883 137.481 37.7269 137.481C37.8405 137.481 37.9276 137.441 37.9882 137.362C38.0526 137.279 38.0847 137.153 38.0847 136.984C38.0847 136.656 37.9655 136.492 37.7269 136.492ZM39.1754 139.295C39.1754 139.02 39.2549 138.805 39.414 138.651C39.5768 138.492 39.7851 138.413 40.0388 138.413C40.2887 138.413 40.4932 138.492 40.6523 138.651C40.8151 138.805 40.8965 139.02 40.8965 139.295C40.8965 139.57 40.8151 139.786 40.6523 139.945C40.4932 140.103 40.2887 140.182 40.0388 140.182C39.7851 140.182 39.5768 140.103 39.414 139.945C39.2549 139.786 39.1754 139.57 39.1754 139.295ZM40.0331 138.803C39.7946 138.803 39.6753 138.967 39.6753 139.295C39.6753 139.623 39.7946 139.786 40.0331 139.786C40.2717 139.786 40.391 139.623 40.391 139.295C40.391 138.967 40.2717 138.803 40.0331 138.803Z" fill="#AFAFAF"/>
<path d="M44.4908 129.127H341.815" stroke="#AFAFAF" stroke-opacity="0.5" stroke-dasharray="2 2"/>
<path d="M31.6987 130.404C32.0623 130.091 32.3482 129.835 32.5565 129.636C32.7685 129.432 32.9446 129.221 33.0847 129.003C33.2249 128.784 33.2949 128.566 33.2949 128.347C33.2949 128.121 33.24 127.944 33.1302 127.816C33.0241 127.688 32.8556 127.624 32.6246 127.624C32.4012 127.624 32.227 127.696 32.102 127.839C31.9809 127.978 31.9165 128.166 31.9089 128.404H31.2841C31.2954 127.974 31.4242 127.647 31.6703 127.421C31.9203 127.191 32.2365 127.076 32.6189 127.076C33.0317 127.076 33.3536 127.189 33.5846 127.415C33.8194 127.641 33.9368 127.942 33.9368 128.319C33.9368 128.59 33.8667 128.852 33.7266 129.104C33.5903 129.353 33.4256 129.577 33.2324 129.777C33.0431 129.973 32.8007 130.201 32.5053 130.46L32.2497 130.687H34.0504V131.223H31.2897V130.754L31.6987 130.404ZM34.6193 129.167C34.6193 128.515 34.7291 128.006 34.9487 127.641C35.1722 127.272 35.5546 127.087 36.0962 127.087C36.6377 127.087 37.0183 127.272 37.2379 127.641C37.4613 128.006 37.5731 128.515 37.5731 129.167C37.5731 129.826 37.4613 130.342 37.2379 130.715C37.0183 131.084 36.6377 131.268 36.0962 131.268C35.5546 131.268 35.1722 131.084 34.9487 130.715C34.7291 130.342 34.6193 129.826 34.6193 129.167ZM36.9369 129.167C36.9369 128.861 36.916 128.603 36.8744 128.392C36.8365 128.182 36.757 128.01 36.6358 127.878C36.5146 127.743 36.3348 127.675 36.0962 127.675C35.8576 127.675 35.6777 127.743 35.5565 127.878C35.4353 128.01 35.3539 128.182 35.3123 128.392C35.2744 128.603 35.2555 128.861 35.2555 129.167C35.2555 129.483 35.2744 129.749 35.3123 129.963C35.3501 130.178 35.4297 130.351 35.5509 130.483C35.6758 130.615 35.8576 130.681 36.0962 130.681C36.3348 130.681 36.5146 130.615 36.6358 130.483C36.7608 130.351 36.8422 130.178 36.8801 129.963C36.9179 129.749 36.9369 129.483 36.9369 129.167ZM38.156 128.155C38.156 127.88 38.2355 127.665 38.3946 127.511C38.5574 127.353 38.7657 127.274 39.0194 127.274C39.2731 127.274 39.4795 127.353 39.6386 127.511C39.8014 127.665 39.8829 127.88 39.8829 128.155C39.8829 128.43 39.8014 128.647 39.6386 128.805C39.4795 128.963 39.2731 129.042 39.0194 129.042C38.7657 129.042 38.5574 128.963 38.3946 128.805C38.2355 128.647 38.156 128.43 38.156 128.155ZM41.621 127.347L39.3546 131.28H38.7184L40.9848 127.347H41.621ZM39.0194 127.664C38.7809 127.664 38.6616 127.827 38.6616 128.155C38.6616 128.487 38.7809 128.652 39.0194 128.652C39.133 128.652 39.2201 128.613 39.2807 128.534C39.3451 128.451 39.3773 128.325 39.3773 128.155C39.3773 127.827 39.258 127.664 39.0194 127.664ZM40.4679 130.466C40.4679 130.191 40.5475 129.976 40.7065 129.822C40.8693 129.664 41.0776 129.585 41.3313 129.585C41.5813 129.585 41.7858 129.664 41.9448 129.822C42.1076 129.976 42.1891 130.191 42.1891 130.466C42.1891 130.741 42.1076 130.958 41.9448 131.116C41.7858 131.274 41.5813 131.353 41.3313 131.353C41.0776 131.353 40.8693 131.274 40.7065 131.116C40.5475 130.958 40.4679 130.741 40.4679 130.466ZM41.3257 129.975C41.0871 129.975 40.9678 130.138 40.9678 130.466C40.9678 130.794 41.0871 130.958 41.3257 130.958C41.5642 130.958 41.6835 130.794 41.6835 130.466C41.6835 130.138 41.5642 129.975 41.3257 129.975Z" fill="#AFAFAF"/>
<path d="M44.4908 120.298H341.815" stroke="#AFAFAF" stroke-opacity="0.5" stroke-dasharray="2 2"/>
<path d="M31.3295 119.349C31.3522 118.999 31.4867 118.726 31.7328 118.53C31.9828 118.334 32.3009 118.236 32.6871 118.236C32.9522 118.236 33.1813 118.283 33.3744 118.377C33.5676 118.471 33.7134 118.599 33.8118 118.761C33.9103 118.923 33.9595 119.106 33.9595 119.309C33.9595 119.543 33.897 119.743 33.7721 119.908C33.6471 120.074 33.4975 120.185 33.3233 120.242V120.264C33.5467 120.332 33.7209 120.456 33.8459 120.637C33.9709 120.814 34.0334 121.042 34.0334 121.321C34.0334 121.543 33.9822 121.741 33.88 121.914C33.7777 122.088 33.6263 122.225 33.4256 122.327C33.2249 122.425 32.9844 122.474 32.7042 122.474C32.2952 122.474 31.9581 122.37 31.6931 122.163C31.4318 121.952 31.2916 121.65 31.2727 121.259H31.8975C31.9127 121.458 31.9903 121.622 32.1304 121.75C32.2706 121.875 32.4599 121.937 32.6985 121.937C32.9295 121.937 33.1075 121.875 33.2324 121.75C33.3574 121.622 33.4199 121.458 33.4199 121.259C33.4199 120.995 33.3347 120.809 33.1643 120.699C32.9976 120.586 32.7401 120.53 32.3917 120.53H32.244V119.999H32.3974C32.7042 119.995 32.9371 119.944 33.0961 119.846C33.2589 119.748 33.3404 119.594 33.3404 119.383C33.3404 119.202 33.2817 119.059 33.1643 118.953C33.0469 118.844 32.8802 118.79 32.6644 118.79C32.4523 118.79 32.2876 118.844 32.1702 118.953C32.0528 119.059 31.9828 119.191 31.96 119.349H31.3295ZM34.7136 120.338C34.7136 119.686 34.8234 119.178 35.043 118.812C35.2665 118.443 35.649 118.258 36.1905 118.258C36.732 118.258 37.1126 118.443 37.3322 118.812C37.5557 119.178 37.6674 119.686 37.6674 120.338C37.6674 120.997 37.5557 121.513 37.3322 121.886C37.1126 122.255 36.732 122.44 36.1905 122.44C35.649 122.44 35.2665 122.255 35.043 121.886C34.8234 121.513 34.7136 120.997 34.7136 120.338ZM37.0312 120.338C37.0312 120.033 37.0103 119.775 36.9687 119.564C36.9308 119.353 36.8513 119.181 36.7301 119.049C36.6089 118.914 36.4291 118.846 36.1905 118.846C35.9519 118.846 35.772 118.914 35.6508 119.049C35.5297 119.181 35.4482 119.353 35.4066 119.564C35.3687 119.775 35.3498 120.033 35.3498 120.338C35.3498 120.654 35.3687 120.92 35.4066 121.134C35.4445 121.349 35.524 121.523 35.6452 121.654C35.7701 121.786 35.9519 121.852 36.1905 121.852C36.4291 121.852 36.6089 121.786 36.7301 121.654C36.8551 121.523 36.9365 121.349 36.9744 121.134C37.0123 120.92 37.0312 120.654 37.0312 120.338ZM38.2503 119.326C38.2503 119.051 38.3298 118.837 38.4889 118.682C38.6517 118.524 38.86 118.445 39.1137 118.445C39.3675 118.445 39.5738 118.524 39.7329 118.682C39.8957 118.837 39.9772 119.051 39.9772 119.326C39.9772 119.601 39.8957 119.818 39.7329 119.976C39.5738 120.134 39.3675 120.213 39.1137 120.213C38.86 120.213 38.6517 120.134 38.4889 119.976C38.3298 119.818 38.2503 119.601 38.2503 119.326ZM41.7153 118.518L39.4489 122.451H38.8127L41.0791 118.518H41.7153ZM39.1137 118.835C38.8752 118.835 38.7559 118.999 38.7559 119.326C38.7559 119.658 38.8752 119.824 39.1137 119.824C39.2273 119.824 39.3144 119.784 39.375 119.705C39.4394 119.622 39.4716 119.496 39.4716 119.326C39.4716 118.999 39.3523 118.835 39.1137 118.835ZM40.5622 121.637C40.5622 121.362 40.6418 121.148 40.8008 120.993C40.9637 120.835 41.1719 120.756 41.4256 120.756C41.6756 120.756 41.8801 120.835 42.0391 120.993C42.202 121.148 42.2834 121.362 42.2834 121.637C42.2834 121.912 42.202 122.129 42.0391 122.287C41.8801 122.445 41.6756 122.524 41.4256 122.524C41.1719 122.524 40.9637 122.445 40.8008 122.287C40.6418 122.129 40.5622 121.912 40.5622 121.637ZM41.42 121.146C41.1814 121.146 41.0621 121.31 41.0621 121.637C41.0621 121.965 41.1814 122.129 41.42 122.129C41.6585 122.129 41.7778 121.965 41.7778 121.637C41.7778 121.31 41.6585 121.146 41.42 121.146Z" fill="#AFAFAF"/>
<path d="M44.4908 111.469H341.815" stroke="#AFAFAF" stroke-opacity="0.5" stroke-dasharray="2 2"/>
<path d="M31.2614 112.764V112.278L33.17 109.554H33.9538V112.204H34.4821V112.764H33.9538V113.622H33.3176V112.764H31.2614ZM33.346 110.21L32.0055 112.204H33.346V110.21ZM35.0187 111.509C35.0187 110.858 35.1285 110.349 35.3482 109.984C35.5716 109.615 35.954 109.43 36.4956 109.43C37.0371 109.43 37.4177 109.615 37.6373 109.984C37.8608 110.349 37.9725 110.858 37.9725 111.509C37.9725 112.168 37.8608 112.684 37.6373 113.057C37.4177 113.426 37.0371 113.611 36.4956 113.611C35.954 113.611 35.5716 113.426 35.3482 113.057C35.1285 112.684 35.0187 112.168 35.0187 111.509ZM37.3363 111.509C37.3363 111.204 37.3155 110.946 37.2738 110.735C37.2359 110.524 37.1564 110.353 37.0352 110.221C36.914 110.085 36.7342 110.017 36.4956 110.017C36.257 110.017 36.0771 110.085 35.956 110.221C35.8348 110.353 35.7533 110.524 35.7117 110.735C35.6738 110.946 35.6549 111.204 35.6549 111.509C35.6549 111.826 35.6738 112.091 35.7117 112.306C35.7496 112.521 35.8291 112.694 35.9503 112.826C36.0752 112.957 36.257 113.023 36.4956 113.023C36.7342 113.023 36.914 112.957 37.0352 112.826C37.1602 112.694 37.2416 112.521 37.2795 112.306C37.3173 112.091 37.3363 111.826 37.3363 111.509ZM38.5554 110.498C38.5554 110.223 38.635 110.008 38.794 109.854C38.9568 109.695 39.1651 109.616 39.4189 109.616C39.6726 109.616 39.879 109.695 40.038 109.854C40.2008 110.008 40.2823 110.223 40.2823 110.498C40.2823 110.773 40.2008 110.989 40.038 111.148C39.879 111.306 39.6726 111.385 39.4189 111.385C39.1651 111.385 38.9568 111.306 38.794 111.148C38.635 110.989 38.5554 110.773 38.5554 110.498ZM42.0205 109.69L39.754 113.622H39.1178L41.3843 109.69H42.0205ZM39.4189 110.006C39.1803 110.006 39.061 110.17 39.061 110.498C39.061 110.829 39.1803 110.995 39.4189 110.995C39.5325 110.995 39.6195 110.955 39.6802 110.876C39.7445 110.793 39.7767 110.667 39.7767 110.498C39.7767 110.17 39.6574 110.006 39.4189 110.006ZM40.8673 112.809C40.8673 112.534 40.9469 112.319 41.1059 112.165C41.2687 112.006 41.477 111.927 41.7308 111.927C41.9807 111.927 42.1852 112.006 42.3442 112.165C42.5071 112.319 42.5885 112.534 42.5885 112.809C42.5885 113.084 42.5071 113.3 42.3442 113.459C42.1852 113.617 41.9807 113.696 41.7308 113.696C41.477 113.696 41.2687 113.617 41.1059 113.459C40.9469 113.3 40.8673 113.084 40.8673 112.809ZM41.7251 112.317C41.4865 112.317 41.3672 112.481 41.3672 112.809C41.3672 113.136 41.4865 113.3 41.7251 113.3C41.9637 113.3 42.0829 113.136 42.0829 112.809C42.0829 112.481 41.9637 112.317 41.7251 112.317Z" fill="#AFAFAF"/>
<path d="M44.4908 102.641H341.815" stroke="#AFAFAF" stroke-opacity="0.5" stroke-dasharray="2 2"/>
<path d="M34.0105 101.228H32.1076V102.353C32.1871 102.247 32.3045 102.159 32.4598 102.087C32.6188 102.016 32.7874 101.98 32.9653 101.98C33.2834 101.98 33.541 102.048 33.7379 102.183C33.9386 102.319 34.0806 102.49 34.1639 102.697C34.251 102.905 34.2946 103.123 34.2946 103.353C34.2946 103.632 34.2396 103.88 34.1298 104.099C34.0238 104.313 33.8628 104.483 33.647 104.607C33.4349 104.732 33.1736 104.794 32.8631 104.794C32.4503 104.794 32.119 104.692 31.869 104.489C31.6191 104.285 31.4695 104.016 31.4203 103.681H32.0508C32.0925 103.858 32.1852 103.999 32.3291 104.104C32.473 104.206 32.6529 104.257 32.8688 104.257C33.1377 104.257 33.3384 104.176 33.4709 104.014C33.6072 103.852 33.6754 103.637 33.6754 103.37C33.6754 103.099 33.6072 102.891 33.4709 102.748C33.3346 102.601 33.1339 102.528 32.8688 102.528C32.6832 102.528 32.5261 102.575 32.3973 102.669C32.2723 102.76 32.1815 102.884 32.1247 103.042H31.5112V100.663H34.0105V101.228ZM34.9687 102.681C34.9687 102.029 35.0785 101.52 35.2981 101.155C35.5215 100.786 35.904 100.601 36.4456 100.601C36.9871 100.601 37.3677 100.786 37.5873 101.155C37.8107 101.52 37.9225 102.029 37.9225 102.681C37.9225 103.34 37.8107 103.856 37.5873 104.229C37.3677 104.598 36.9871 104.782 36.4456 104.782C35.904 104.782 35.5215 104.598 35.2981 104.229C35.0785 103.856 34.9687 103.34 34.9687 102.681ZM37.2863 102.681C37.2863 102.375 37.2654 102.117 37.2238 101.906C37.1859 101.696 37.1064 101.524 36.9852 101.392C36.864 101.257 36.6841 101.189 36.4456 101.189C36.207 101.189 36.0271 101.257 35.9059 101.392C35.7847 101.524 35.7033 101.696 35.6617 101.906C35.6238 102.117 35.6049 102.375 35.6049 102.681C35.6049 102.997 35.6238 103.263 35.6617 103.477C35.6995 103.692 35.779 103.865 35.9002 103.997C36.0252 104.129 36.207 104.195 36.4456 104.195C36.6841 104.195 36.864 104.129 36.9852 103.997C37.1102 103.865 37.1916 103.692 37.2295 103.477C37.2673 103.263 37.2863 102.997 37.2863 102.681ZM38.5054 101.669C38.5054 101.394 38.5849 101.179 38.744 101.025C38.9068 100.867 39.1151 100.788 39.3688 100.788C39.6225 100.788 39.8289 100.867 39.988 101.025C40.1508 101.179 40.2322 101.394 40.2322 101.669C40.2322 101.944 40.1508 102.161 39.988 102.319C39.8289 102.477 39.6225 102.556 39.3688 102.556C39.1151 102.556 38.9068 102.477 38.744 102.319C38.5849 102.161 38.5054 101.944 38.5054 101.669ZM41.9704 100.861L39.704 104.794H39.0678L41.3342 100.861H41.9704ZM39.3688 101.178C39.1302 101.178 39.011 101.341 39.011 101.669C39.011 102.001 39.1302 102.166 39.3688 102.166C39.4824 102.166 39.5695 102.127 39.6301 102.048C39.6945 101.965 39.7267 101.839 39.7267 101.669C39.7267 101.341 39.6074 101.178 39.3688 101.178ZM40.8173 103.98C40.8173 103.705 40.8968 103.49 41.0559 103.336C41.2187 103.178 41.427 103.099 41.6807 103.099C41.9307 103.099 42.1352 103.178 42.2942 103.336C42.457 103.49 42.5385 103.705 42.5385 103.98C42.5385 104.255 42.457 104.472 42.2942 104.63C42.1352 104.788 41.9307 104.867 41.6807 104.867C41.427 104.867 41.2187 104.788 41.0559 104.63C40.8968 104.472 40.8173 104.255 40.8173 103.98ZM41.6751 103.489C41.4365 103.489 41.3172 103.652 41.3172 103.98C41.3172 104.308 41.4365 104.472 41.6751 104.472C41.9136 104.472 42.0329 104.308 42.0329 103.98C42.0329 103.652 41.9136 103.489 41.6751 103.489Z" fill="#AFAFAF"/>
<path d="M44.4908 93.8119H341.815" stroke="#AFAFAF" stroke-opacity="0.5" stroke-dasharray="2 2"/>
<path d="M33.5675 92.8009C33.5258 92.6275 33.4501 92.4975 33.3403 92.411C33.2304 92.3245 33.0771 92.281 32.8801 92.281C32.581 92.281 32.3575 92.3958 32.2099 92.6257C32.0622 92.8517 31.9845 93.2285 31.977 93.7558C32.0754 93.5902 32.2193 93.462 32.4087 93.3716C32.598 93.2812 32.8025 93.236 33.0222 93.236C33.2721 93.236 33.4917 93.2907 33.6811 93.3998C33.8742 93.5054 34.0238 93.6597 34.1298 93.8631C34.2396 94.0666 34.2946 94.3095 34.2946 94.592C34.2946 94.8558 34.2415 95.091 34.1355 95.2983C34.0333 95.5056 33.8799 95.6695 33.6754 95.7899C33.4709 95.9068 33.2248 95.9651 32.9369 95.9651C32.5469 95.9651 32.2402 95.8803 32.0167 95.7108C31.7971 95.5374 31.6418 95.2945 31.5509 94.9819C31.4638 94.6694 31.4203 94.2795 31.4203 93.8123C31.4203 92.4336 31.9088 91.7443 32.8858 91.7443C33.2645 91.7443 33.5618 91.846 33.7776 92.0494C33.9973 92.2528 34.126 92.5032 34.1639 92.8009H33.5675ZM32.8801 93.7784C32.6491 93.7784 32.4522 93.848 32.2894 93.9875C32.1303 94.1231 32.0508 94.3208 32.0508 94.5807C32.0508 94.8407 32.1247 95.048 32.2723 95.2023C32.4238 95.3531 32.634 95.4283 32.9029 95.4283C33.1414 95.4283 33.3289 95.3548 33.4652 95.2079C33.6053 95.061 33.6754 94.865 33.6754 94.6203C33.6754 94.3643 33.6072 94.1608 33.4709 94.0101C33.3384 93.8557 33.1414 93.7784 32.8801 93.7784ZM34.9853 93.8518C34.9853 93.2003 35.0951 92.6918 35.3147 92.3262C35.5382 91.9572 35.9207 91.7725 36.4622 91.7725C37.0037 91.7725 37.3843 91.9572 37.6039 92.3262C37.8274 92.6918 37.9391 93.2003 37.9391 93.8518C37.9391 94.5112 37.8274 95.0271 37.6039 95.4C37.3843 95.7691 37.0037 95.9538 36.4622 95.9538C35.9207 95.9538 35.5382 95.7691 35.3147 95.4C35.0951 95.0271 34.9853 94.5112 34.9853 93.8518ZM37.3029 93.8518C37.3029 93.5467 37.2821 93.2886 37.2404 93.0777C37.2025 92.8669 37.123 92.6953 37.0018 92.5636C36.8806 92.428 36.7008 92.3602 36.4622 92.3602C36.2236 92.3602 36.0438 92.428 35.9225 92.5636C35.8014 92.6953 35.72 92.8669 35.6783 93.0777C35.6404 93.2886 35.6215 93.5467 35.6215 93.8518C35.6215 94.1683 35.6404 94.4338 35.6783 94.6485C35.7162 94.8633 35.7957 95.0367 35.9169 95.1684C36.0418 95.3001 36.2236 95.3661 36.4622 95.3661C36.7008 95.3661 36.8806 95.3001 37.0018 95.1684C37.1268 95.0367 37.2082 94.8633 37.2461 94.6485C37.284 94.4338 37.3029 94.1683 37.3029 93.8518ZM38.522 92.8404C38.522 92.5653 38.6015 92.3506 38.7606 92.1963C38.9234 92.0381 39.1317 91.959 39.3854 91.959C39.6392 91.959 39.8455 92.0381 40.0046 92.1963C40.1674 92.3506 40.2489 92.5653 40.2489 92.8404C40.2489 93.1155 40.1674 93.332 40.0046 93.4902C39.8455 93.6484 39.6392 93.7275 39.3854 93.7275C39.1317 93.7275 38.9234 93.6484 38.7606 93.4902C38.6015 93.332 38.522 93.1155 38.522 92.8404ZM41.987 92.0324L39.7206 95.9651H39.0844L41.3508 92.0324H41.987ZM39.3854 92.3489C39.1469 92.3489 39.0276 92.5127 39.0276 92.8404C39.0276 93.172 39.1469 93.3377 39.3854 93.3377C39.499 93.3377 39.5862 93.2981 39.6467 93.219C39.7111 93.136 39.7433 93.0099 39.7433 92.8404C39.7433 92.5127 39.624 92.3489 39.3854 92.3489ZM40.8339 95.1514C40.8339 94.8763 40.9135 94.6616 41.0725 94.5073C41.2354 94.3491 41.4436 94.27 41.6973 94.27C41.9473 94.27 42.1518 94.3491 42.3108 94.5073C42.4737 94.6616 42.5551 94.8763 42.5551 95.1514C42.5551 95.4265 42.4737 95.643 42.3108 95.8012C42.1518 95.9594 41.9473 96.0385 41.6973 96.0385C41.4436 96.0385 41.2354 95.9594 41.0725 95.8012C40.9135 95.643 40.8339 95.4265 40.8339 95.1514ZM41.6917 94.6598C41.4531 94.6598 41.3338 94.8237 41.3338 95.1514C41.3338 95.4791 41.4531 95.643 41.6917 95.643C41.9302 95.643 42.0495 95.4791 42.0495 95.1514C42.0495 94.8237 41.9302 94.6598 41.6917 94.6598Z" fill="#AFAFAF"/>
<path d="M44.4908 84.9833H341.815" stroke="#AFAFAF" stroke-opacity="0.5" stroke-dasharray="2 2"/>
<path d="M33.9651 83.5145L32.386 87.1364H31.7327L33.3289 83.5823H31.2272V83.0343H33.9651V83.5145ZM34.5193 85.0232C34.5193 84.3715 34.6292 83.863 34.8488 83.4976C35.0722 83.1284 35.4547 82.9438 35.9962 82.9438C36.5378 82.9438 36.9184 83.1284 37.138 83.4976C37.3614 83.863 37.4731 84.3715 37.4731 85.0232C37.4731 85.6824 37.3614 86.1985 37.138 86.5714C36.9184 86.9405 36.5378 87.1251 35.9962 87.1251C35.4547 87.1251 35.0722 86.9405 34.8488 86.5714C34.6292 86.1985 34.5193 85.6824 34.5193 85.0232ZM36.8369 85.0232C36.8369 84.7181 36.8161 84.46 36.7744 84.2491C36.7366 84.0381 36.6571 83.8667 36.5359 83.7349C36.4147 83.5993 36.2348 83.5315 35.9962 83.5315C35.7577 83.5315 35.5778 83.5993 35.4566 83.7349C35.3354 83.8667 35.254 84.0381 35.2123 84.2491C35.1745 84.46 35.1555 84.7181 35.1555 85.0232C35.1555 85.3396 35.1745 85.6052 35.2123 85.8199C35.2502 86.0346 35.3297 86.2079 35.4509 86.3397C35.5759 86.4715 35.7577 86.5375 35.9962 86.5375C36.2348 86.5375 36.4147 86.4715 36.5359 86.3397C36.6608 86.2079 36.7423 86.0346 36.7801 85.8199C36.818 85.6052 36.8369 85.3396 36.8369 85.0232ZM38.0561 84.0118C38.0561 83.7368 38.1356 83.5221 38.2946 83.3676C38.4575 83.2094 38.6658 83.1303 38.9195 83.1303C39.1732 83.1303 39.3796 83.2094 39.5386 83.3676C39.7015 83.5221 39.7829 83.7368 39.7829 84.0118C39.7829 84.2868 39.7015 84.5033 39.5386 84.6616C39.3796 84.8198 39.1732 84.8989 38.9195 84.8989C38.6658 84.8989 38.4575 84.8198 38.2946 84.6616C38.1356 84.5033 38.0561 84.2868 38.0561 84.0118ZM41.5211 83.2038L39.2546 87.1364H38.6184L40.8849 83.2038H41.5211ZM38.9195 83.5202C38.6809 83.5202 38.5616 83.684 38.5616 84.0118C38.5616 84.3433 38.6809 84.509 38.9195 84.509C39.0331 84.509 39.1202 84.4694 39.1808 84.3903C39.2452 84.3075 39.2774 84.1813 39.2774 84.0118C39.2774 83.684 39.1581 83.5202 38.9195 83.5202ZM40.368 86.3228C40.368 86.0478 40.4475 85.833 40.6066 85.6786C40.7694 85.5204 40.9777 85.4413 41.2314 85.4413C41.4813 85.4413 41.6858 85.5204 41.8449 85.6786C42.0077 85.833 42.0891 86.0478 42.0891 86.3228C42.0891 86.5978 42.0077 86.8143 41.8449 86.9725C41.6858 87.1308 41.4813 87.2099 41.2314 87.2099C40.9777 87.2099 40.7694 87.1308 40.6066 86.9725C40.4475 86.8143 40.368 86.5978 40.368 86.3228ZM41.2257 85.8312C40.9871 85.8312 40.8679 85.995 40.8679 86.3228C40.8679 86.6505 40.9871 86.8143 41.2257 86.8143C41.4643 86.8143 41.5836 86.6505 41.5836 86.3228C41.5836 85.995 41.4643 85.8312 41.2257 85.8312Z" fill="#AFAFAF"/>
<path d="M44.4908 76.1547H341.815" stroke="#AFAFAF" stroke-opacity="0.5" stroke-dasharray="2 2"/>
<path d="M32.0396 76.1549C31.6457 75.959 31.4488 75.6501 31.4488 75.2282C31.4488 75.0248 31.4999 74.8384 31.6022 74.6688C31.7044 74.4993 31.8578 74.3656 32.0623 74.2677C32.2668 74.166 32.5167 74.1151 32.8121 74.1151C33.1037 74.1151 33.3517 74.166 33.5562 74.2677C33.7645 74.3656 33.9198 74.4993 34.022 74.6688C34.1243 74.8384 34.1754 75.0248 34.1754 75.2282C34.1754 75.4392 34.1205 75.6256 34.0106 75.7876C33.9046 75.9458 33.7626 76.0683 33.5846 76.1549C33.8005 76.234 33.9709 76.364 34.0959 76.5448C34.2208 76.7218 34.2833 76.9309 34.2833 77.172C34.2833 77.4168 34.2208 77.6334 34.0959 77.8217C33.9709 78.0101 33.7967 78.1551 33.5733 78.2568C33.3498 78.3585 33.0961 78.4094 32.8121 78.4094C32.5281 78.4094 32.2743 78.3585 32.0509 78.2568C31.8313 78.1551 31.659 78.0101 31.534 77.8217C31.409 77.6334 31.3466 77.4168 31.3466 77.172C31.3466 76.9271 31.409 76.7161 31.534 76.5391C31.659 76.3621 31.8275 76.234 32.0396 76.1549ZM33.5562 75.3073C33.5562 75.0964 33.4899 74.9344 33.3574 74.8214C33.2249 74.7084 33.0431 74.6519 32.8121 74.6519C32.5849 74.6519 32.405 74.7084 32.2725 74.8214C32.1399 74.9344 32.0736 75.0983 32.0736 75.313C32.0736 75.5013 32.1418 75.6558 32.2781 75.7763C32.4183 75.8931 32.5962 75.9515 32.8121 75.9515C33.0279 75.9515 33.2059 75.8912 33.346 75.7707C33.4862 75.6501 33.5562 75.4957 33.5562 75.3073ZM32.8121 76.4374C32.5622 76.4374 32.3577 76.4996 32.1986 76.6239C32.0434 76.7444 31.9657 76.9196 31.9657 77.1494C31.9657 77.3641 32.0415 77.5392 32.1929 77.6748C32.3444 77.8067 32.5508 77.8726 32.8121 77.8726C33.0696 77.8726 33.2722 77.8048 33.4199 77.6692C33.5714 77.5336 33.6471 77.3603 33.6471 77.1494C33.6471 76.9233 33.5695 76.7482 33.4142 76.6239C33.2627 76.4996 33.062 76.4374 32.8121 76.4374ZM34.9632 76.1944C34.9632 75.5428 35.0731 75.0342 35.2927 74.6688C35.5161 74.2997 35.8986 74.1151 36.4401 74.1151C36.9817 74.1151 37.3622 74.2997 37.5819 74.6688C37.8053 75.0342 37.917 75.5428 37.917 76.1944C37.917 76.8537 37.8053 77.3697 37.5819 77.7426C37.3622 78.1118 36.9817 78.2964 36.4401 78.2964C35.8986 78.2964 35.5161 78.1118 35.2927 77.7426C35.0731 77.3697 34.9632 76.8537 34.9632 76.1944ZM37.2808 76.1944C37.2808 75.8893 37.26 75.6313 37.2183 75.4203C37.1805 75.2094 37.1009 75.038 36.9797 74.9062C36.8586 74.7706 36.6787 74.7027 36.4401 74.7027C36.2015 74.7027 36.0217 74.7706 35.9005 74.9062C35.7793 75.038 35.6979 75.2094 35.6562 75.4203C35.6184 75.6313 35.5994 75.8893 35.5994 76.1944C35.5994 76.5109 35.6184 76.7764 35.6562 76.9911C35.6941 77.2059 35.7736 77.3791 35.8948 77.511C36.0198 77.6428 36.2015 77.7087 36.4401 77.7087C36.6787 77.7087 36.8586 77.6428 36.9797 77.511C37.1047 77.3791 37.1862 77.2059 37.224 76.9911C37.2619 76.7764 37.2808 76.5109 37.2808 76.1944ZM38.4999 75.183C38.4999 74.908 38.5795 74.6933 38.7385 74.5389C38.9014 74.3807 39.1097 74.3016 39.3634 74.3016C39.6171 74.3016 39.8235 74.3807 39.9825 74.5389C40.1454 74.6933 40.2268 74.908 40.2268 75.183C40.2268 75.458 40.1454 75.6746 39.9825 75.8328C39.8235 75.991 39.6171 76.0701 39.3634 76.0701C39.1097 76.0701 38.9014 75.991 38.7385 75.8328C38.5795 75.6746 38.4999 75.458 38.4999 75.183ZM41.965 74.375L39.6985 78.3077H39.0623L41.3288 74.375H41.965ZM39.3634 74.6914C39.1248 74.6914 39.0055 74.8553 39.0055 75.183C39.0055 75.5145 39.1248 75.6803 39.3634 75.6803C39.477 75.6803 39.5641 75.6407 39.6247 75.5616C39.6891 75.4787 39.7212 75.3525 39.7212 75.183C39.7212 74.8553 39.6019 74.6914 39.3634 74.6914ZM40.8119 77.494C40.8119 77.219 40.8914 77.0043 41.0504 76.8499C41.2133 76.6917 41.4216 76.6126 41.6753 76.6126C41.9252 76.6126 42.1297 76.6917 42.2888 76.8499C42.4516 77.0043 42.533 77.219 42.533 77.494C42.533 77.769 42.4516 77.9856 42.2888 78.1438C42.1297 78.302 41.9252 78.3811 41.6753 78.3811C41.4216 78.3811 41.2133 78.302 41.0504 78.1438C40.8914 77.9856 40.8119 77.769 40.8119 77.494ZM41.6696 77.0024C41.431 77.0024 41.3117 77.1663 41.3117 77.494C41.3117 77.8217 41.431 77.9856 41.6696 77.9856C41.9082 77.9856 42.0275 77.8217 42.0275 77.494C42.0275 77.1663 41.9082 77.0024 41.6696 77.0024Z" fill="#AFAFAF"/>
<path d="M44.4908 67.326H341.815" stroke="#AFAFAF" stroke-opacity="0.5" stroke-dasharray="2 2"/>
<path d="M32.1474 68.3603C32.1853 68.5486 32.2667 68.6918 32.3917 68.7897C32.5166 68.8877 32.6852 68.9366 32.8972 68.9366C33.1661 68.9366 33.363 68.8312 33.488 68.6202C33.613 68.4093 33.6754 68.0495 33.6754 67.541C33.5846 67.6691 33.4558 67.7689 33.2892 67.8405C33.1263 67.9083 32.9484 67.9422 32.7552 67.9422C32.5091 67.9422 32.2856 67.8932 32.0849 67.7953C31.8842 67.6936 31.7252 67.5448 31.6078 67.3489C31.4942 67.1493 31.4374 66.9082 31.4374 66.6256C31.4374 66.2113 31.5586 65.8817 31.8009 65.6368C32.0471 65.3882 32.3841 65.2639 32.812 65.2639C33.327 65.2639 33.6925 65.4353 33.9083 65.7781C34.128 66.1171 34.2378 66.6388 34.2378 67.3432C34.2378 67.8292 34.1961 68.2266 34.1128 68.5355C34.0333 68.8444 33.8932 69.0779 33.6925 69.2361C33.4918 69.3943 33.2134 69.4734 32.8575 69.4734C32.4523 69.4734 32.1399 69.3679 31.9202 69.157C31.7006 68.9461 31.5775 68.6805 31.551 68.3603H32.1474ZM32.8688 67.3997C33.096 67.3997 33.274 67.3301 33.4028 67.1907C33.5353 67.0476 33.6016 66.8592 33.6016 66.6256C33.6016 66.3657 33.5315 66.1642 33.3914 66.0211C33.2551 65.8742 33.0676 65.8007 32.8291 65.8007C32.5905 65.8007 32.4011 65.876 32.261 66.0267C32.1247 66.1736 32.0565 66.3676 32.0565 66.6087C32.0565 66.8385 32.1228 67.0287 32.2554 67.1794C32.3917 67.3263 32.5962 67.3997 32.8688 67.3997ZM34.9465 67.3658C34.9465 66.7142 35.0563 66.2057 35.276 65.8403C35.4994 65.4711 35.8819 65.2865 36.4234 65.2865C36.9649 65.2865 37.3455 65.4711 37.5652 65.8403C37.7886 66.2057 37.9003 66.7142 37.9003 67.3658C37.9003 68.0251 37.7886 68.5411 37.5652 68.914C37.3455 69.2832 36.9649 69.4678 36.4234 69.4678C35.8819 69.4678 35.4994 69.2832 35.276 68.914C35.0563 68.5411 34.9465 68.0251 34.9465 67.3658ZM37.2641 67.3658C37.2641 67.0607 37.2433 66.8027 37.2016 66.5917C37.1638 66.3808 37.0842 66.2094 36.9631 66.0776C36.8419 65.942 36.662 65.8742 36.4234 65.8742C36.1849 65.8742 36.005 65.942 35.8838 66.0776C35.7626 66.2094 35.6812 66.3808 35.6395 66.5917C35.6017 66.8027 35.5827 67.0607 35.5827 67.3658C35.5827 67.6823 35.6017 67.9478 35.6395 68.1625C35.6774 68.3773 35.7569 68.5505 35.8781 68.6824C36.0031 68.8142 36.1849 68.8801 36.4234 68.8801C36.662 68.8801 36.8419 68.8142 36.9631 68.6824C37.088 68.5505 37.1694 68.3773 37.2073 68.1625C37.2452 67.9478 37.2641 67.6823 37.2641 67.3658ZM38.4833 66.3544C38.4833 66.0794 38.5628 65.8647 38.7218 65.7103C38.8847 65.5521 39.0929 65.473 39.3467 65.473C39.6004 65.473 39.8068 65.5521 39.9658 65.7103C40.1287 65.8647 40.2101 66.0794 40.2101 66.3544C40.2101 66.6294 40.1287 66.846 39.9658 67.0042C39.8068 67.1624 39.6004 67.2415 39.3467 67.2415C39.0929 67.2415 38.8847 67.1624 38.7218 67.0042C38.5628 66.846 38.4833 66.6294 38.4833 66.3544ZM41.9483 65.5464L39.6818 69.4791H39.0456L41.3121 65.5464H41.9483ZM39.3467 65.8629C39.1081 65.8629 38.9888 66.0267 38.9888 66.3544C38.9888 66.6859 39.1081 66.8517 39.3467 66.8517C39.4603 66.8517 39.5474 66.8121 39.608 66.733C39.6723 66.6501 39.7045 66.5239 39.7045 66.3544C39.7045 66.0267 39.5853 65.8629 39.3467 65.8629ZM40.7952 68.6654C40.7952 68.3904 40.8747 68.1757 41.0338 68.0213C41.1966 67.8631 41.4049 67.784 41.6586 67.784C41.9085 67.784 42.113 67.8631 42.2721 68.0213C42.4349 68.1757 42.5163 68.3904 42.5163 68.6654C42.5163 68.9404 42.4349 69.157 42.2721 69.3152C42.113 69.4734 41.9085 69.5525 41.6586 69.5525C41.4049 69.5525 41.1966 69.4734 41.0338 69.3152C40.8747 69.157 40.7952 68.9404 40.7952 68.6654ZM41.6529 68.1738C41.4143 68.1738 41.295 68.3377 41.295 68.6654C41.295 68.9931 41.4143 69.157 41.6529 69.157C41.8915 69.157 42.0108 68.9931 42.0108 68.6654C42.0108 68.3377 41.8915 68.1738 41.6529 68.1738Z" fill="#AFAFAF"/>
<path d="M44.4908 58.4973H341.815" stroke="#AFAFAF" stroke-opacity="0.5" stroke-dasharray="2 2"/>
<path d="M31.2556 57.1189V56.5312H32.4371V60.6503H31.7839V57.1189H31.2556ZM33.3267 58.5371C33.3267 57.8854 33.4365 57.3769 33.6562 57.0115C33.8796 56.6423 34.2621 56.4578 34.8036 56.4578C35.3452 56.4578 35.7257 56.6423 35.9454 57.0115C36.1688 57.3769 36.2805 57.8854 36.2805 58.5371C36.2805 59.1963 36.1688 59.7124 35.9454 60.0853C35.7257 60.4544 35.3452 60.639 34.8036 60.639C34.2621 60.639 33.8796 60.4544 33.6562 60.0853C33.4365 59.7124 33.3267 59.1963 33.3267 58.5371ZM35.6443 58.5371C35.6443 58.232 35.6235 57.9739 35.5819 57.763C35.544 57.552 35.4644 57.3807 35.3433 57.2488C35.2221 57.1132 35.0422 57.0454 34.8036 57.0454C34.5651 57.0454 34.3852 57.1132 34.264 57.2488C34.1428 57.3807 34.0614 57.552 34.0197 57.763C33.9819 57.9739 33.9629 58.232 33.9629 58.5371C33.9629 58.8535 33.9819 59.1191 34.0197 59.3338C34.0576 59.5485 34.1371 59.7218 34.2583 59.8536C34.3833 59.9855 34.5651 60.0514 34.8036 60.0514C35.0422 60.0514 35.2221 59.9855 35.3433 59.8536C35.4682 59.7218 35.5497 59.5485 35.5875 59.3338C35.6254 59.1191 35.6443 58.8535 35.6443 58.5371ZM36.9657 58.5371C36.9657 57.8854 37.0755 57.3769 37.2952 57.0115C37.5186 56.6423 37.9011 56.4578 38.4426 56.4578C38.9841 56.4578 39.3647 56.6423 39.5844 57.0115C39.8078 57.3769 39.9195 57.8854 39.9195 58.5371C39.9195 59.1963 39.8078 59.7124 39.5844 60.0853C39.3647 60.4544 38.9841 60.639 38.4426 60.639C37.9011 60.639 37.5186 60.4544 37.2952 60.0853C37.0755 59.7124 36.9657 59.1963 36.9657 58.5371ZM39.2833 58.5371C39.2833 58.232 39.2625 57.9739 39.2208 57.763C39.183 57.552 39.1034 57.3807 38.9823 57.2488C38.8611 57.1132 38.6812 57.0454 38.4426 57.0454C38.2041 57.0454 38.0242 57.1132 37.903 57.2488C37.7818 57.3807 37.7004 57.552 37.6587 57.763C37.6209 57.9739 37.6019 58.232 37.6019 58.5371C37.6019 58.8535 37.6209 59.1191 37.6587 59.3338C37.6966 59.5485 37.7761 59.7218 37.8973 59.8536C38.0223 59.9855 38.2041 60.0514 38.4426 60.0514C38.6812 60.0514 38.8611 59.9855 38.9823 59.8536C39.1072 59.7218 39.1886 59.5485 39.2265 59.3338C39.2644 59.1191 39.2833 58.8535 39.2833 58.5371ZM40.5025 57.5257C40.5025 57.2507 40.582 57.036 40.741 56.8815C40.9039 56.7233 41.1121 56.6442 41.3659 56.6442C41.6196 56.6442 41.826 56.7233 41.985 56.8815C42.1479 57.036 42.2293 57.2507 42.2293 57.5257C42.2293 57.8007 42.1479 58.0173 41.985 58.1755C41.826 58.3337 41.6196 58.4128 41.3659 58.4128C41.1121 58.4128 40.9039 58.3337 40.741 58.1755C40.582 58.0173 40.5025 57.8007 40.5025 57.5257ZM43.9675 56.7177L41.701 60.6503H41.0648L43.3313 56.7177H43.9675ZM41.3659 57.0341C41.1273 57.0341 41.008 57.198 41.008 57.5257C41.008 57.8572 41.1273 58.0229 41.3659 58.0229C41.4795 58.0229 41.5666 57.9834 41.6272 57.9043C41.6915 57.8214 41.7237 57.6952 41.7237 57.5257C41.7237 57.198 41.6045 57.0341 41.3659 57.0341ZM42.8144 59.8367C42.8144 59.5617 42.8939 59.347 43.053 59.1925C43.2158 59.0343 43.4241 58.9552 43.6778 58.9552C43.9277 58.9552 44.1322 59.0343 44.2913 59.1925C44.4541 59.347 44.5355 59.5617 44.5355 59.8367C44.5355 60.1117 44.4541 60.3283 44.2913 60.4865C44.1322 60.6447 43.9277 60.7238 43.6778 60.7238C43.4241 60.7238 43.2158 60.6447 43.053 60.4865C42.8939 60.3283 42.8144 60.1117 42.8144 59.8367ZM43.6721 59.3451C43.4335 59.3451 43.3142 59.509 43.3142 59.8367C43.3142 60.1644 43.4335 60.3283 43.6721 60.3283C43.9107 60.3283 44.03 60.1644 44.03 59.8367C44.03 59.509 43.9107 59.3451 43.6721 59.3451Z" fill="#AFAFAF"/>
<path d="M124.624 21.66C125.512 21.66 126.288 21.832 126.952 22.176C127.624 22.512 128.14 23 128.5 23.64C128.868 24.272 129.052 25.012 129.052 25.86C129.052 26.708 128.868 27.444 128.5 28.068C128.14 28.692 127.624 29.172 126.952 29.508C126.288 29.836 125.512 30 124.624 30H121.9V21.66H124.624ZM124.624 28.884C125.6 28.884 126.348 28.62 126.868 28.092C127.388 27.564 127.648 26.82 127.648 25.86C127.648 24.892 127.388 24.136 126.868 23.592C126.348 23.048 125.6 22.776 124.624 22.776H123.268V28.884H124.624ZM129.544 26.664C129.544 26 129.68 25.412 129.952 24.9C130.232 24.388 130.608 23.992 131.08 23.712C131.56 23.424 132.088 23.28 132.664 23.28C133.184 23.28 133.636 23.384 134.02 23.592C134.412 23.792 134.724 24.044 134.956 24.348V23.388H136.336V30H134.956V29.016C134.724 29.328 134.408 29.588 134.008 29.796C133.608 30.004 133.152 30.108 132.64 30.108C132.072 30.108 131.552 29.964 131.08 29.676C130.608 29.38 130.232 28.972 129.952 28.452C129.68 27.924 129.544 27.328 129.544 26.664ZM134.956 26.688C134.956 26.232 134.86 25.836 134.668 25.5C134.484 25.164 134.24 24.908 133.936 24.732C133.632 24.556 133.304 24.468 132.952 24.468C132.6 24.468 132.272 24.556 131.968 24.732C131.664 24.9 131.416 25.152 131.224 25.488C131.04 25.816 130.948 26.208 130.948 26.664C130.948 27.12 131.04 27.52 131.224 27.864C131.416 28.208 131.664 28.472 131.968 28.656C132.28 28.832 132.608 28.92 132.952 28.92C133.304 28.92 133.632 28.832 133.936 28.656C134.24 28.48 134.484 28.224 134.668 27.888C134.86 27.544 134.956 27.144 134.956 26.688ZM139.321 24.504V28.164C139.321 28.412 139.377 28.592 139.489 28.704C139.609 28.808 139.809 28.86 140.089 28.86H140.929V30H139.849C139.233 30 138.761 29.856 138.433 29.568C138.105 29.28 137.941 28.812 137.941 28.164V24.504H137.161V23.388H137.941V21.744H139.321V23.388H140.929V24.504H139.321ZM141.325 26.664C141.325 26 141.461 25.412 141.733 24.9C142.013 24.388 142.389 23.992 142.861 23.712C143.341 23.424 143.869 23.28 144.445 23.28C144.965 23.28 145.417 23.384 145.801 23.592C146.193 23.792 146.505 24.044 146.737 24.348V23.388H148.117V30H146.737V29.016C146.505 29.328 146.189 29.588 145.789 29.796C145.389 30.004 144.933 30.108 144.421 30.108C143.853 30.108 143.333 29.964 142.861 29.676C142.389 29.38 142.013 28.972 141.733 28.452C141.461 27.924 141.325 27.328 141.325 26.664ZM146.737 26.688C146.737 26.232 146.641 25.836 146.449 25.5C146.265 25.164 146.021 24.908 145.717 24.732C145.413 24.556 145.085 24.468 144.733 24.468C144.381 24.468 144.053 24.556 143.749 24.732C143.445 24.9 143.197 25.152 143.005 25.488C142.821 25.816 142.729 26.208 142.729 26.664C142.729 27.12 142.821 27.52 143.005 27.864C143.197 28.208 143.445 28.472 143.749 28.656C144.061 28.832 144.389 28.92 144.733 28.92C145.085 28.92 145.413 28.832 145.717 28.656C146.021 28.48 146.265 28.224 146.449 27.888C146.641 27.544 146.737 27.144 146.737 26.688ZM153.583 21.66V30H152.215V21.66H153.583ZM158.308 23.28C158.828 23.28 159.292 23.388 159.7 23.604C160.116 23.82 160.44 24.14 160.672 24.564C160.904 24.988 161.02 25.5 161.02 26.1V30H159.664V26.304C159.664 25.712 159.516 25.26 159.22 24.948C158.924 24.628 158.52 24.468 158.008 24.468C157.496 24.468 157.088 24.628 156.784 24.948C156.488 25.26 156.34 25.712 156.34 26.304V30H154.972V23.388H156.34V24.144C156.564 23.872 156.848 23.66 157.192 23.508C157.544 23.356 157.916 23.28 158.308 23.28ZM161.901 26.664C161.901 26 162.037 25.412 162.309 24.9C162.589 24.388 162.965 23.992 163.437 23.712C163.917 23.424 164.449 23.28 165.033 23.28C165.465 23.28 165.889 23.376 166.305 23.568C166.729 23.752 167.065 24 167.313 24.312V21.12H168.693V30H167.313V29.004C167.089 29.324 166.777 29.588 166.377 29.796C165.985 30.004 165.533 30.108 165.021 30.108C164.445 30.108 163.917 29.964 163.437 29.676C162.965 29.38 162.589 28.972 162.309 28.452C162.037 27.924 161.901 27.328 161.901 26.664ZM167.313 26.688C167.313 26.232 167.217 25.836 167.025 25.5C166.841 25.164 166.597 24.908 166.293 24.732C165.989 24.556 165.661 24.468 165.309 24.468C164.957 24.468 164.629 24.556 164.325 24.732C164.021 24.9 163.773 25.152 163.581 25.488C163.397 25.816 163.305 26.208 163.305 26.664C163.305 27.12 163.397 27.52 163.581 27.864C163.773 28.208 164.021 28.472 164.325 28.656C164.637 28.832 164.965 28.92 165.309 28.92C165.661 28.92 165.989 28.832 166.293 28.656C166.597 28.48 166.841 28.224 167.025 27.888C167.217 27.544 167.313 27.144 167.313 26.688ZM176.141 26.532C176.141 26.78 176.125 27.004 176.093 27.204H171.041C171.081 27.732 171.277 28.156 171.629 28.476C171.981 28.796 172.413 28.956 172.925 28.956C173.661 28.956 174.181 28.648 174.485 28.032H175.961C175.761 28.64 175.397 29.14 174.869 29.532C174.349 29.916 173.701 30.108 172.925 30.108C172.293 30.108 171.725 29.968 171.221 29.688C170.725 29.4 170.333 29 170.045 28.488C169.765 27.968 169.625 27.368 169.625 26.688C169.625 26.008 169.761 25.412 170.033 24.9C170.313 24.38 170.701 23.98 171.197 23.7C171.701 23.42 172.277 23.28 172.925 23.28C173.549 23.28 174.105 23.416 174.593 23.688C175.081 23.96 175.461 24.344 175.733 24.84C176.005 25.328 176.141 25.892 176.141 26.532ZM174.713 26.1C174.705 25.596 174.525 25.192 174.173 24.888C173.821 24.584 173.385 24.432 172.865 24.432C172.393 24.432 171.989 24.584 171.653 24.888C171.317 25.184 171.117 25.588 171.053 26.1H174.713ZM179.912 26.652L182.048 30H180.5L179.072 27.756L177.728 30H176.3L178.436 26.748L176.3 23.388H177.848L179.276 25.632L180.62 23.388H182.048L179.912 26.652ZM187.985 26.7L191.033 30H189.185L186.737 27.156V30H185.369V21.12H186.737V26.28L189.137 23.388H191.033L187.985 26.7ZM197.666 26.532C197.666 26.78 197.65 27.004 197.618 27.204H192.566C192.606 27.732 192.802 28.156 193.154 28.476C193.506 28.796 193.938 28.956 194.45 28.956C195.186 28.956 195.706 28.648 196.01 28.032H197.486C197.286 28.64 196.922 29.14 196.394 29.532C195.874 29.916 195.226 30.108 194.45 30.108C193.818 30.108 193.25 29.968 192.746 29.688C192.25 29.4 191.858 29 191.57 28.488C191.29 27.968 191.15 27.368 191.15 26.688C191.15 26.008 191.286 25.412 191.558 24.9C191.838 24.38 192.226 23.98 192.722 23.7C193.226 23.42 193.802 23.28 194.45 23.28C195.074 23.28 195.63 23.416 196.118 23.688C196.606 23.96 196.986 24.344 197.258 24.84C197.53 25.328 197.666 25.892 197.666 26.532ZM196.238 26.1C196.23 25.596 196.05 25.192 195.698 24.888C195.346 24.584 194.91 24.432 194.39 24.432C193.918 24.432 193.514 24.584 193.178 24.888C192.842 25.184 192.642 25.588 192.578 26.1H196.238ZM206.608 23.28C207.128 23.28 207.592 23.388 208 23.604C208.416 23.82 208.74 24.14 208.972 24.564C209.212 24.988 209.332 25.5 209.332 26.1V30H207.976V26.304C207.976 25.712 207.828 25.26 207.532 24.948C207.236 24.628 206.832 24.468 206.32 24.468C205.808 24.468 205.4 24.628 205.096 24.948C204.8 25.26 204.652 25.712 204.652 26.304V30H203.296V26.304C203.296 25.712 203.148 25.26 202.852 24.948C202.556 24.628 202.152 24.468 201.64 24.468C201.128 24.468 200.72 24.628 200.416 24.948C200.12 25.26 199.972 25.712 199.972 26.304V30H198.604V23.388H199.972V24.144C200.196 23.872 200.48 23.66 200.824 23.508C201.168 23.356 201.536 23.28 201.928 23.28C202.456 23.28 202.928 23.392 203.344 23.616C203.76 23.84 204.08 24.164 204.304 24.588C204.504 24.188 204.816 23.872 205.24 23.64C205.664 23.4 206.12 23.28 206.608 23.28ZM211.361 22.512C211.113 22.512 210.905 22.428 210.737 22.26C210.569 22.092 210.485 21.884 210.485 21.636C210.485 21.388 210.569 21.18 210.737 21.012C210.905 20.844 211.113 20.76 211.361 20.76C211.601 20.76 211.805 20.844 211.973 21.012C212.141 21.18 212.225 21.388 212.225 21.636C212.225 21.884 212.141 22.092 211.973 22.26C211.805 22.428 211.601 22.512 211.361 22.512ZM212.033 23.388V30H210.665V23.388H212.033ZM215.821 30.108C215.301 30.108 214.833 30.016 214.417 29.832C214.009 29.64 213.685 29.384 213.445 29.064C213.205 28.736 213.077 28.372 213.061 27.972H214.477C214.501 28.252 214.633 28.488 214.873 28.68C215.121 28.864 215.429 28.956 215.797 28.956C216.181 28.956 216.477 28.884 216.685 28.74C216.901 28.588 217.009 28.396 217.009 28.164C217.009 27.916 216.889 27.732 216.649 27.612C216.417 27.492 216.045 27.36 215.533 27.216C215.037 27.08 214.633 26.948 214.321 26.82C214.009 26.692 213.737 26.496 213.505 26.232C213.281 25.968 213.169 25.62 213.169 25.188C213.169 24.836 213.273 24.516 213.481 24.228C213.689 23.932 213.985 23.7 214.369 23.532C214.761 23.364 215.209 23.28 215.713 23.28C216.465 23.28 217.069 23.472 217.525 23.856C217.989 24.232 218.237 24.748 218.269 25.404H216.901C216.877 25.108 216.757 24.872 216.541 24.696C216.325 24.52 216.033 24.432 215.665 24.432C215.305 24.432 215.029 24.5 214.837 24.636C214.645 24.772 214.549 24.952 214.549 25.176C214.549 25.352 214.613 25.5 214.741 25.62C214.869 25.74 215.025 25.836 215.209 25.908C215.393 25.972 215.665 26.056 216.025 26.16C216.505 26.288 216.897 26.42 217.201 26.556C217.513 26.684 217.781 26.876 218.005 27.132C218.229 27.388 218.345 27.728 218.353 28.152C218.353 28.528 218.249 28.864 218.041 29.16C217.833 29.456 217.537 29.688 217.153 29.856C216.777 30.024 216.333 30.108 215.821 30.108ZM222.039 26.7L225.087 30H223.239L220.791 27.156V30H219.423V21.12H220.791V26.28L223.191 23.388H225.087L222.039 26.7ZM226.355 22.512C226.107 22.512 225.899 22.428 225.731 22.26C225.563 22.092 225.479 21.884 225.479 21.636C225.479 21.388 225.563 21.18 225.731 21.012C225.899 20.844 226.107 20.76 226.355 20.76C226.595 20.76 226.799 20.844 226.967 21.012C227.135 21.18 227.219 21.388 227.219 21.636C227.219 21.884 227.135 22.092 226.967 22.26C226.799 22.428 226.595 22.512 226.355 22.512ZM227.027 23.388V30H225.659V23.388H227.027ZM231.751 23.28C232.271 23.28 232.735 23.388 233.143 23.604C233.559 23.82 233.883 24.14 234.115 24.564C234.347 24.988 234.463 25.5 234.463 26.1V30H233.107V26.304C233.107 25.712 232.959 25.26 232.663 24.948C232.367 24.628 231.963 24.468 231.451 24.468C230.939 24.468 230.531 24.628 230.227 24.948C229.931 25.26 229.783 25.712 229.783 26.304V30H228.415V23.388H229.783V24.144C230.007 23.872 230.291 23.66 230.635 23.508C230.987 23.356 231.359 23.28 231.751 23.28ZM235.344 26.664C235.344 26 235.48 25.412 235.752 24.9C236.032 24.388 236.408 23.992 236.88 23.712C237.36 23.424 237.888 23.28 238.464 23.28C238.984 23.28 239.436 23.384 239.82 23.592C240.212 23.792 240.524 24.044 240.756 24.348V23.388H242.136V30H240.756V29.016C240.524 29.328 240.208 29.588 239.808 29.796C239.408 30.004 238.952 30.108 238.44 30.108C237.872 30.108 237.352 29.964 236.88 29.676C236.408 29.38 236.032 28.972 235.752 28.452C235.48 27.924 235.344 27.328 235.344 26.664ZM240.756 26.688C240.756 26.232 240.66 25.836 240.468 25.5C240.284 25.164 240.04 24.908 239.736 24.732C239.432 24.556 239.104 24.468 238.752 24.468C238.4 24.468 238.072 24.556 237.768 24.732C237.464 24.9 237.216 25.152 237.024 25.488C236.84 25.816 236.748 26.208 236.748 26.664C236.748 27.12 236.84 27.52 237.024 27.864C237.216 28.208 237.464 28.472 237.768 28.656C238.08 28.832 238.408 28.92 238.752 28.92C239.104 28.92 239.432 28.832 239.736 28.656C240.04 28.48 240.284 28.224 240.468 27.888C240.66 27.544 240.756 27.144 240.756 26.688ZM246.861 23.28C247.381 23.28 247.845 23.388 248.253 23.604C248.669 23.82 248.993 24.14 249.225 24.564C249.457 24.988 249.573 25.5 249.573 26.1V30H248.217V26.304C248.217 25.712 248.069 25.26 247.773 24.948C247.477 24.628 247.073 24.468 246.561 24.468C246.049 24.468 245.641 24.628 245.337 24.948C245.041 25.26 244.893 25.712 244.893 26.304V30H243.525V23.388H244.893V24.144C245.117 23.872 245.401 23.66 245.745 23.508C246.097 23.356 246.469 23.28 246.861 23.28Z" fill="black"/>
</g>
<defs>
<filter id="filter0_d_512_1607" x="0" y="0" width="372" height="177" filterUnits="userSpaceOnUse" color-interpolation-filters="sRGB">
<feFlood flood-opacity="0" result="BackgroundImageFix"/>
<feColorMatrix in="SourceAlpha" type="matrix" values="0 0 0 0 0 0 0 0 0 0 0 0 0 0 0 0 0 0 127 0" result="hardAlpha"/>
<feOffset dy="2"/>
<feGaussianBlur stdDeviation="4"/>
<feComposite in2="hardAlpha" operator="out"/>
<feColorMatrix type="matrix" values="0 0 0 0 0.956863 0 0 0 0 0.262745 0 0 0 0 0.211765 0 0 0 0.65 0"/>
<feBlend mode="normal" in2="BackgroundImageFix" result="effect1_dropShadow_512_1607"/>
<feBlend mode="normal" in="SourceGraphic" in2="effect1_dropShadow_512_1607" result="shape"/>
</filter>
</defs>
</svg>
