<svg width="46" height="23" viewBox="0 0 46 23" fill="none" xmlns="http://www.w3.org/2000/svg">
<g clip-path="url(#clip0_598_368)">
<path fill-rule="evenodd" clip-rule="evenodd" d="M17.25 1.53849C13.8126 3.52689 11.5 7.24337 11.5 11.5C11.5 15.7566 13.8126 19.4731 17.25 21.4615C15.5585 22.4399 13.5946 23 11.5 23C5.14873 23 0 17.8513 0 11.5C0 5.14873 5.14873 0 11.5 0C13.5946 0 15.5585 0.560016 17.25 1.53849Z" fill="url(#paint0_linear_598_368)"/>
<path fill-rule="evenodd" clip-rule="evenodd" d="M28.52 1.53849C31.9573 3.52689 34.27 7.24337 34.27 11.5C34.27 15.7566 31.9573 19.4731 28.52 21.4615C30.2116 22.4399 32.1754 23 34.27 23C40.6213 23 45.77 17.8513 45.77 11.5C45.77 5.14873 40.6213 0 34.27 0C32.1754 0 30.2116 0.560014 28.52 1.53849Z" fill="url(#paint1_linear_598_368)"/>
<path d="M22.885 19.5501C27.2673 19.5501 30.82 15.9974 30.82 11.6151C30.82 7.23267 27.2673 3.68005 22.885 3.68005C18.5026 3.68005 14.95 7.23267 14.95 11.6151C14.95 15.9974 18.5026 19.5501 22.885 19.5501Z" fill="#FE0154"/>
</g>
<defs>
<linearGradient id="paint0_linear_598_368" x1="8.625" y1="0" x2="8.625" y2="23" gradientUnits="userSpaceOnUse">
<stop stop-color="#FEBD01"/>
<stop offset="1" stop-color="#F44336" stop-opacity="0.65"/>
</linearGradient>
<linearGradient id="paint1_linear_598_368" x1="37.145" y1="0" x2="37.145" y2="23" gradientUnits="userSpaceOnUse">
<stop stop-color="#FEBD01"/>
<stop offset="1" stop-color="#F44336" stop-opacity="0.65"/>
</linearGradient>
<clipPath id="clip0_598_368">
<rect width="45.8506" height="23" fill="white"/>
</clipPath>
</defs>
</svg>
