<svg width="67" height="34" viewBox="0 0 67 34" fill="none" xmlns="http://www.w3.org/2000/svg">
  <!-- Pindahkan <defs> ke sini -->
  <defs>
    <linearGradient id="paint0_linear_137_171" x1="13.0149" y1="0.373108" x2="13.0149" y2="33.2089" gradientUnits="userSpaceOnUse">
      <stop stop-color="#FEBD01"/>
      <stop offset="1" stop-color="#F44336" stop-opacity="0.65"/>
    </linearGradient>
    <linearGradient id="paint1_linear_137_171" x1="53.7314" y1="0.373108" x2="53.7314" y2="33.2089" gradientUnits="userSpaceOnUse">
      <stop stop-color="#FEBD01"/>
      <stop offset="1" stop-color="#F44336" stop-opacity="0.65"/>
    </linearGradient>
    <clipPath id="clip0_137_171">
      <rect width="65.4585" height="32.8358" fill="white" transform="translate(0.701416 0.373108)"/>
    </clipPath>
  </defs>
  
  <!-- Konten yang menggunakan referensi dari <defs> -->
  <g clip-path="url(#clip0_137_171)">
    <path fill-rule="evenodd" clip-rule="evenodd" d="M25.3283 2.56953C20.421 5.40825 17.1193 10.7141 17.1193 16.791C17.1193 22.868 20.421 28.1738 25.3283 31.0126C22.9134 32.4094 20.1097 33.2089 17.1193 33.2089C8.05197 33.2089 0.701416 25.8584 0.701416 16.791C0.701416 7.72367 8.05197 0.373108 17.1193 0.373108C20.1097 0.373108 22.9134 1.17261 25.3283 2.56953Z" fill="url(#paint0_linear_137_171)"/>
    <path fill-rule="evenodd" clip-rule="evenodd" d="M41.418 2.56953C46.3252 5.40825 49.6269 10.7141 49.6269 16.791C49.6269 22.868 46.3252 28.1738 41.418 31.0126C43.8329 32.4094 46.6365 33.2089 49.6269 33.2089C58.6943 33.2089 66.0448 25.8584 66.0448 16.791C66.0448 7.72367 58.6943 0.373108 49.6269 0.373108C46.6365 0.373108 43.8329 1.17261 41.418 2.56953Z" fill="url(#paint1_linear_137_171)"/>
    <path d="M33.373 28.2836C39.6295 28.2836 44.7014 23.2117 44.7014 16.9552C44.7014 10.6987 39.6295 5.62683 33.373 5.62683C27.1166 5.62683 22.0447 10.6987 22.0447 16.9552C22.0447 23.2117 27.1166 28.2836 33.373 28.2836Z" fill="#FE0154"/>
  </g>
</svg>
