<svg width="30" height="15" viewBox="0 0 30 15" fill="none" xmlns="http://www.w3.org/2000/svg">
<g clip-path="url(#clip0_512_1313)">
<path fill-rule="evenodd" clip-rule="evenodd" d="M11.0544 0.985919C8.85162 2.26015 7.36959 4.64181 7.36959 7.3696C7.36959 10.0974 8.85162 12.479 11.0544 13.7533C9.9704 14.3803 8.71192 14.7392 7.3696 14.7392C3.29949 14.7392 0 11.4397 0 7.3696C0 3.29949 3.29949 0 7.3696 0C8.71192 0 9.9704 0.358878 11.0544 0.985919Z" fill="black"/>
<path fill-rule="evenodd" clip-rule="evenodd" d="M18.2766 0.985919C20.4794 2.26015 21.9614 4.64181 21.9614 7.3696C21.9614 10.0974 20.4794 12.479 18.2766 13.7533C19.3606 14.3803 20.6191 14.7392 21.9614 14.7392C26.0315 14.7392 29.331 11.4397 29.331 7.3696C29.331 3.29949 26.0315 0 21.9614 0C20.6191 0 19.3606 0.358877 18.2766 0.985919Z" fill="black"/>
<path d="M14.6655 12.5283C17.4739 12.5283 19.7505 10.2517 19.7505 7.4433C19.7505 4.63492 17.4739 2.35828 14.6655 2.35828C11.8571 2.35828 9.58044 4.63492 9.58044 7.4433C9.58044 10.2517 11.8571 12.5283 14.6655 12.5283Z" fill="black"/>
</g>
<defs>
<clipPath id="clip0_512_1313">
<rect width="29.3827" height="14.7392" fill="white"/>
</clipPath>
</defs>
</svg>
